<?xml version="1.0" encoding="utf-8"?>
<!-- Generator: Adobe Illustrator 23.0.0, SVG Export Plug-In . SVG Version: 6.00 Build 0)  -->
<svg version="1.1" id="Space" xmlns="http://www.w3.org/2000/svg" xmlns:xlink="http://www.w3.org/1999/xlink" x="0px" y="0px"
	 viewBox="0 0 1200 1200" style="enable-background:new 0 0 1200 1200;" xml:space="preserve">
<style type="text/css">
	.st0{fill:#F7DDA5;}
	.st1{fill:#F5F4E9;}
	.st2{fill:#F9FBFB;}
	.st3{fill:#996D48;}
	.st4{fill:#DCC385;}
	.st5{fill:#FCFDEB;}
	.st6{fill:#FBFBF9;}
	.st7{fill:#FEFBD8;}
	.st8{fill:#AA7B5B;}
	.st9{fill:#D28F57;}
	.st10{fill:#F5E5A4;}
	.st11{fill:#FCFDFD;}
	.st12{fill:#B47041;}
	.st13{fill:#FCF9F8;}
	.st14{fill:#C2A885;}
	.st15{fill:#ECE9DF;}
	.st16{fill:#E0C19B;}
	.st17{fill:#E8D5AE;}
	.st18{fill:#A27B48;}
	.st19{fill:#FDFEF2;}
	.st20{fill:#FCFCF8;}
	.st21{fill:#FAF8F8;}
	.st22{fill:#FEF8F6;}
	.st23{fill:#FAFCF1;}
	.st24{fill:#F4F6F8;}
	.st25{fill:#F3FDFE;}
	.st26{fill:#F7F8F3;}
	.st27{fill:#F5DEB2;}
	.st28{fill:#F4C87F;}
	.st29{fill:#F7D08D;}
	.st30{fill:#E4DDC4;}
	.st31{fill:#EAC790;}
	.st32{fill:#F1DD9F;}
	.st33{fill:#C5753B;}
	.st34{fill:#D67939;}
	.st35{fill:#E5C083;}
	.st36{fill:#BF9F75;}
	.st37{fill:#825C29;}
	.st38{fill:#EAD2AB;}
	.st39{fill:#5B3520;}
	.st40{fill:#CDAE6A;}
	.st41{fill:#C49869;}
	.st42{fill:#523318;}
	.st43{fill:#AF8963;}
	.st44{fill:#B08E65;}
	.st45{fill:#DBC699;}
	.st46{fill:#CF8843;}
	.st47{fill:#B67A51;}
	.st48{fill:#FBEDE6;}
	.st49{fill:#DFB697;}
	.st50{fill:#9C7656;}
	.st51{fill:#EAD49D;}
	.st52{fill:#7B3D1A;}
	.st53{fill:#DBB58A;}
	.st54{fill:#AB774F;}
	.st55{fill:#AB6D42;}
	.st56{fill:#8E591B;}
	.st57{fill:#AA6D3E;}
	.st58{fill:#BF7D4B;}
	.st59{fill:#E7C29C;}
	.st60{fill:#AA8355;}
	.st61{fill:#DDBC69;}
	.st62{fill:#FDFADC;}
	.st63{fill:#A76C40;}
	.st64{fill:#8C5836;}
	.st65{fill:#CC884D;}
	.st66{fill:#C27C49;}
	.st67{fill:#C38955;}
	.st68{fill:#C88E61;}
	.st69{fill:#FAFEE2;}
	.st70{fill:#F3E2C3;}
	.st71{fill:#CD8A5F;}
	.st72{fill:#C88748;}
	.st73{fill:#CB8A4B;}
	.st74{fill:#C79E64;}
	.st75{fill:#9F5727;}
	.st76{fill:#744310;}
	.st77{fill:#C5A46C;}
	.st78{fill:#E8BE79;}
	.st79{fill:#EED0A2;}
	.st80{fill:#DDAC5B;}
	.st81{fill:#F0C471;}
	.st82{fill:#BD925B;}
	.st83{fill:#9C7154;}
	.st84{fill:#BC7A40;}
	.st85{fill:#C07F4F;}
	.st86{fill:#C69F63;}
	.st87{fill:#B48B5A;}
	.st88{fill:#EBCD8F;}
	.st89{fill:#8D5D24;}
	.st90{fill:#C38956;}
	.st91{fill:#DDAE53;}
	.st92{fill:#F9E2C3;}
	.st93{fill:#AF8A5A;}
	.st94{fill:#DEB87A;}
	.st95{fill:#F7D8A3;}
	.st96{fill:#BE8D4D;}
	.st97{fill:#715444;}
	.st98{fill:#693C1C;}
	.st99{fill:#462714;}
	.st100{fill:#A46D40;}
	.st101{fill:#320D04;}
	.st102{fill:#6E3416;}
	.st103{fill:#E0BA8F;}
	.st104{fill:#AC6C3A;}
	.st105{fill:#6A3016;}
	.st106{fill:#6B371E;}
	.st107{fill:#6E371E;}
	.st108{fill:#68281C;}
	.st109{fill:#864D2B;}
	.st110{fill:#C38653;}
	.st111{fill:#8D683F;}
	.st112{fill:#916B41;}
	.st113{fill:#A77E42;}
	.st114{fill:#8E6B40;}
	.st115{fill:#A96E3C;}
	.st116{fill:#7C4016;}
	.st117{fill:#814220;}
	.st118{fill:#DAB88D;}
	.st119{fill:#F6FBEB;}
	.st120{fill:#FEF3F2;}
	.st121{fill:#FCEFDC;}
	.st122{fill:#CE9A6D;}
	.st123{fill:#CB9260;}
	.st124{fill:#985930;}
	.st125{fill:#B6814D;}
	.st126{fill:#CE9154;}
	.st127{fill:#F8D381;}
	.st128{fill:#9E6E3E;}
	.st129{fill:#9A6D2C;}
	.st130{fill:#F8D78C;}
	.st131{fill:#C2944B;}
	.st132{fill:#DCB667;}
	.st133{fill:#E1B96C;}
	.st134{fill:#EABE7B;}
	.st135{fill:#EABF77;}
	.st136{fill:#E7BE7F;}
	.st137{fill:#EEBD77;}
	.st138{fill:#E6B874;}
	.st139{fill:#E4C182;}
	.st140{fill:#5A361E;}
	.st141{fill:#5D371F;}
	.st142{fill:#783818;}
	.st143{fill:#8E664E;}
	.st144{fill:#84482B;}
	.st145{fill:#D3B17F;}
	.st146{fill:#DA8F52;}
	.st147{fill:#A8804A;}
	.st148{fill:#E0B262;}
	.st149{fill:#F9D38F;}
	.st150{fill:#EEC36B;}
	.st151{fill:#D0A54A;}
	.st152{fill:#D49444;}
	.st153{fill:#C7994C;}
	.st154{fill:#FCF8F4;}
	.st155{fill:#F9F9F0;}
	.st156{fill:#F7D686;}
	.st157{fill:#FAFBE5;}
	.st158{fill:#D5B391;}
	.st159{fill:#734E2E;}
	.st160{fill:#755553;}
	.st161{fill:#9B7152;}
	.st162{fill:#26090B;}
	.st163{fill:#240301;}
	.st164{fill:#6E4D3E;}
	.st165{fill:#763B1A;}
	.st166{fill:#73381C;}
	.st167{fill:#904B1E;}
	.st168{fill:#EAFCFC;}
	.st169{fill:#EFD8A3;}
	.st170{fill:#E5C79D;}
	.st171{fill:#AB8751;}
	.st172{fill:#A48049;}
	.st173{fill:#DBB06A;}
	.st174{fill:#E9C7A3;}
	.st175{fill:#F8E5C0;}
	.st176{fill:#F3ECDA;}
	.st177{fill:#874D28;}
	.st178{fill:#E8BB62;}
	.st179{fill:#EBBA60;}
	.st180{fill:#E4C179;}
	.st181{fill:#380F09;}
	.st182{fill:#493127;}
	.st183{fill:#F3E09F;}
	.st184{fill:#F4CA7B;}
	.st185{fill:#FBFEEE;}
	.st186{fill:#FEF6CF;}
	.st187{fill:#F8EDC5;}
	.st188{fill:#D3A66E;}
	.st189{fill:#DBB283;}
	.st190{fill:#EEC87C;}
	.st191{fill:#F3CE80;}
	.st192{fill:#F9DDA2;}
	.st193{fill:#7A5331;}
	.st194{fill:#513120;}
	.st195{fill:#5B351E;}
	.st196{fill:#49291D;}
	.st197{fill:#4A2A17;}
	.st198{fill:#FBF7E8;}
	.st199{fill:#FDFBF0;}
	.st200{fill:#F8F4E5;}
	.st201{fill:#CBA87C;}
	.st202{fill:#E7C37A;}
	.st203{fill:#E6C379;}
	.st204{fill:#F3C776;}
	.st205{fill:#F4D595;}
	.st206{fill:#F2D491;}
	.st207{fill:#FBF6D5;}
	.st208{fill:#F7CC7C;}
	.st209{fill:#FDE8B1;}
	.st210{fill:#A2744A;}
	.st211{fill:#D3AA63;}
	.st212{fill:#F5CF85;}
	.st213{fill:#F8F7E8;}
	.st214{fill:#FDF5CC;}
	.st215{fill:#502E1E;}
	.st216{fill:#4D2D1C;}
	.st217{fill:#4A2B1B;}
	.st218{fill:#502E20;}
	.st219{fill:#562D16;}
	.st220{fill:#4C2C1D;}
	.st221{fill:#4D2F15;}
	.st222{fill:#4D2F1F;}
	.st223{fill:#452D1F;}
	.st224{fill:#FEFDE6;}
	.st225{fill:#F6F9DB;}
	.st226{fill:#F9F7CE;}
	.st227{fill:#FBFBEE;}
</style>
<g>
	<path class="st0" d="M628.92,522.69c-0.06,95.41-0.12,190.81-0.18,286.22c-2.67,1.93-5.2,1.96-7.53-0.59
		c-3.93-11.69-1.06-23.76-2.01-35.62c0.28-75.19-0.44-150.39,0.33-225.54c0.06-4.47,5.9-8.15,1.88-13.24
		c-0.55-1.48-0.6-2.97-0.12-4.48c1.54-2.56,3.13-5.1,5.12-7.37C627.42,521.56,628.26,521.77,628.92,522.69z"/>
	<path class="st1" d="M511.31,835.55c0.76,0.02,1.51,0.03,2.27,0.05c1.75,2.26,4.16,2.04,6.6,1.69c2.14-0.15,4.27-0.2,6.41-0.25
		c5.94-0.05,11.86-0.05,17.79-0.09c3.66-0.11,7.31,0.01,10.96,0.02c4.23,0.04,8.45,0.06,12.68,0.06c2.37-0.01,4.75,0.02,7.12,0.02
		c1.17-0.05,2.35-0.04,3.52-0.01c4.08,0.08,8.16,0.06,12.25,0.02c2.33-0.03,4.66-0.01,6.99,0c2.92,0,5.83,0.02,8.75,0
		c2.35-0.03,4.7-0.02,7.05-0.02c3.58-0.09,7.15,0,10.73,0.14c2.52,0.12,4.73,1.02,6.67,2.62c-2.65,3.84-6.69,2.4-10.16,2.41
		c-33.4,0.1-66.81,0.09-100.21-0.01c-3.25-0.01-6.57-0.55-9.7-1.42c-1.36-0.38-4.41,0.48-3.91-2.21
		C507.34,837.34,509.84,836.54,511.31,835.55z"/>
	<path class="st2" d="M539.86,387.04c0.32,0.36,0.63,0.71,0.95,1.07c0.03,0.97-0.21,1.88-0.65,2.74c-2.27,3.46-1.69,7.34-1.62,11.15
		c0.1,2.72,0.16,5.42,0.2,8.14c-0.09,4.79,0.27,9.59-0.43,14.37c-0.82,2.34-1.29,5.05-4.8,4.56"/>
	<path class="st2" d="M538.86,370.4"/>
	<path class="st2" d="M537.31,365.4"/>
	<path class="st3" d="M606.66,391.76c0.2,2.85,0.41,5.71,0.61,8.56c3.49,6.78,4.22,14.07,3.97,21.54c-0.24,4.35,0.6,8.78-0.92,13.05
		c-0.71,1.17-1.75,1.81-3.12,1.93c-9.14-4.01-4.24-12.29-5.68-18.64c0.05-5.66,0.02-11.32,0.06-16.99c0.04-3.17,0.14-6.33,1.93-9.13
		C604.45,390.9,605.5,390.79,606.66,391.76z"/>
	<path class="st4" d="M622.32,773.42c0.06,11.84,0.12,23.68,0.18,35.51c2.98,3.76,2.74,7.53,0.02,11.3
		c0.04,2.07,0.07,4.14,0.11,6.21c0.07,3.97-2.24,3.67-4.92,2.74c-1.84-4.3-0.32-8.77-0.65-13.15c0.92-13.88-1.99-27.93,1.8-41.69
		C619.75,773.04,620.9,772.73,622.32,773.42z"/>
	<path class="st5" d="M531.21,471.36c0.13-2.39,0.27-4.79,0.4-7.18c3.98-1.14,6,1.28,5.83,4.49c-0.61,11.43,0.35,22.94-1.68,34.28
		c-0.38,2.14-1.56,4.24-4.49,3.81c-0.02-5.9-0.04-11.8-0.07-17.71"/>
	<path class="st6" d="M532.16,358.48"/>
	<path class="st7" d="M571.22,322.23c-0.7-1.37-1.41-2.74-2.11-4.11c5.43-0.46,8.95,2.13,11.13,6.91c1.27,2.93,0.92,6.4,3.01,9.08
		c0.63,2.77-0.02,5.08-2.37,6.81c-0.98,0.5-2.02,0.75-3.12,0.75c-1.1-0.19-2.04-0.67-2.87-1.41c-0.61-0.88-1.05-1.86-1.35-2.88
		C572.62,332.36,573.34,327.08,571.22,322.23z"/>
	<path class="st8" d="M599.63,364.88c-0.73,0.7-1.6,1.16-2.58,1.42c-1.56,0.13-2.97-0.24-4.19-1.25c-1.83-2.45-2.54-5.32-3.06-8.27
		c-0.05-1,0.1-1.97,0.41-2.93c0.73-1.4,1.82-2.32,3.41-2.58c1.28,0.16,2.55,0.32,3.83,0.48"/>
	<path class="st9" d="M591.38,353.69c-0.03,0.74-0.06,1.47-0.1,2.21c-1.28,1.28-2.83,1.74-4.61,1.55c-1.16-0.25-2.14-0.8-2.97-1.65
		c-0.66-0.98-1.12-2.05-1.4-3.2c-0.52-2.33-0.59-4.7-0.57-7.07c0.31-3.62,0.88-7.16,2.96-10.26c0.66,0.32,1.35,0.53,2.08,0.62
		c0.05,0.73,0.19,1.44,0.44,2.13c0.68,1.32,1.35,2.64,2.03,3.96C590.88,345.72,589.44,350.01,591.38,353.69z"/>
	<path class="st3" d="M600.33,373.34c1.3,0.32,2.61,0.64,3.91,0.96c-0.31,0.57-0.22,1.08,0.26,1.52c1.71,1.85,1.09,4.06,0.97,6.19
		c-1.73,2.73-2.67,6.07-5.88,7.68c-4.33-1.25-3.98-4.91-4.26-8.25c0.05-1.74,0.39-3.41,1.08-5.02
		C597.27,374.81,598.53,373.73,600.33,373.34z"/>
	<path class="st10" d="M622.52,820.24c-0.01-3.77-0.02-7.54-0.02-11.3c2.08-0.01,4.17-0.02,6.25-0.02
		C629.29,814.12,629.32,819.06,622.52,820.24z"/>
	<path class="st11" d="M620.13,462.46"/>
	<path class="st11" d="M622.35,471.33"/>
	<path class="st11" d="M626.81,471.34L626.81,471.34"/>
	<path class="st12" d="M533.5,429.07c0.77-1.46,1.54-2.91,2.31-4.37c1.51-1.33,3.13-1.3,4.82-0.38c0.8,0.92,1.34,1.96,1.65,3.14
		c0.53,3.09,0.31,6.01-1.84,8.52c-2.23,1.58-4.41,1.7-6.53-0.2c-0.25-1.48-0.51-2.95-0.76-4.43
		C533.27,430.6,533.39,429.84,533.5,429.07z"/>
	<path class="st13" d="M603.17,318.58"/>
	<path class="st14" d="M581.78,334.3c-6.47-2.1-3.6-5.76-1.54-9.27c3.07-0.28,4.49,1.41,5.01,4.17c-0.17,1.51-0.34,3.01-0.51,4.52
		C583.93,334.81,582.94,335,581.78,334.3z"/>
	<path class="st15" d="M615.96,462.29c-0.13,1.54-0.26,3.09-0.39,4.63c-1.5,0.74-2.44-0.13-3.33-1.16
		c-1.13-1.84-2.47-3.54-3.77-5.27c-0.32-0.84-0.39-1.71-0.25-2.6c0.43-1.27,1.1-2.42,1.78-3.57c1.16-1.85,1.57-4.25,3.86-5.27
		c0.62,1.51,1.24,3.01,1.86,4.52C615.79,456.48,615.87,459.39,615.96,462.29z"/>
	<path class="st16" d="M631.11,839.79c-2.34-0.06-4.69-0.12-7.03-0.18c-2.32-1.8-6.18-2.94-3.01-7.08c2.1-1.05,4.03-0.9,5.72,0.84
		C629.51,834.64,631.21,836.61,631.11,839.79z"/>
	<path class="st17" d="M626.79,833.36c-2.18-0.02-4.37-0.04-6.55-0.06c-0.45,0-0.9-0.01-1.36-0.01c-1.36-0.35-2.5-1.04-3.37-2.16
		c-0.38-0.87-0.36-1.73,0.06-2.58c0.87-0.49,1.66-0.38,2.36,0.33c2.01,0.04,3.7-0.53,4.7-2.44
		C627,826.96,626.68,830.29,626.79,833.36z"/>
	<path class="st18" d="M539.86,387.04c0.12-0.77,0.23-1.55,0.35-2.32c2.31-1.99-0.26-6,3.13-7.55c3.02-0.42,4.57,1.17,5.32,3.86
		c-0.12,5.51-1.5,9.29-8.07,5.78C540.59,386.81,539.86,387.04,539.86,387.04z"/>
	<path class="st19" d="M617.92,418.03"/>
	<path class="st20" d="M599.16,315.44c-5.87-1.1-9.13-1.7-12.38-2.31"/>
	<path class="st21" d="M625.48,401.57"/>
	<path class="st21" d="M623.72,405.56"/>
	<path class="st22" d="M605.83,351.86"/>
	<path class="st23" d="M620.15,453.58"/>
	<path class="st23" d="M626.81,453.57"/>
	<path class="st24" d="M546.85,346.97c-1.48,0-2.97,0-4.45,0"/>
	<path class="st25" d="M598.21,351.2"/>
	<path class="st26" d="M629.03,471.34"/>
	<path class="st27" d="M520.19,833.47c4.15-3.39,6.57-8.54,3.73-12.62c-5.27-7.57-3.59-15.58-3.6-23.45
		c-0.12-86.94-0.1-173.88,0.1-260.82c0.01-4.15-3.04-10.07,4.09-12.1c2.3,1.26,3.32,3.38,3.91,5.79
		c-0.39,10.03,2.98,20.01,0.42,30.08c-2.03,6.77-1.24,13.44,0.68,20.09c-2.19,29.42-1.54,58.89-1.55,88.34
		c-0.03,45.37-0.07,90.74,0.04,136.09c0.38,3.57,0.38,7.21,1.14,10.76c0.33,1.71,0.49,3.45,0.55,5.19
		c-0.08,4.63,0.56,9.34-1.31,13.8c-0.59,1.08-1.46,1.85-2.59,2.33c-1.78,0.52-3.51,0.39-5.15-0.49
		C519.54,835.62,519.39,834.61,520.19,833.47z"/>
	<path class="st28" d="M531.27,506.77c5.11-13.32,1.1-27.35,3.05-40.93c0.06-0.41-1.77-1.1-2.71-1.66
		c-0.04-3.6-1.18-7.36,1.49-10.58c0.42,0.24,0.83,0.48,1.25,0.71c1.76,2.76,3.29,5.82,7.39,5.44c2.72,0.22,5.4,0.53,7.58,2.4
		c1.18,1.34,1.73,2.94,1.86,4.69c0.02,1.73-0.39,3.35-1.28,4.84c-5.48,3.63-4.25,9.42-4.82,14.71c-0.66,6.11-0.95,12.29-2.49,18.29
		c-2.66,3.93-4.58,8.41-8.4,11.5c-1.06,0.36-2.1,0.34-3.13-0.12c-0.69-0.98-0.64-1.94,0.05-2.9
		C531.16,511.04,531.22,508.9,531.27,506.77z"/>
	<path class="st29" d="M531.11,513.17c0.1,0.88,0.2,1.77,0.3,2.65c2.76,5.21-2.41,8.23-3.42,12.4c-0.4,0.32-0.8,0.64-1.2,0.95
		c-0.76-1.56-1.51-3.12-2.27-4.69C524.96,519.69,525.27,514.81,531.11,513.17z"/>
	<path class="st30" d="M520.19,833.47c0.01,0.74,0.03,1.47,0.04,2.21c1.29,2.32-0.73,3.02-1.99,4.1c-3.02,0.24-4.61-1.11-4.65-4.18
		C515.79,834.89,517.99,834.18,520.19,833.47z"/>
	<path class="st31" d="M622.32,773.42c-0.61-0.03-1.22-0.06-1.82-0.08c-5.11-4.74-3.4-11.01-3.41-16.69
		c-0.12-70.74-0.1-141.48-0.08-212.21c0.03-4.14,0.05-8.28,0.11-12.42c0.14-3.37,0.1-6.8,2.57-9.54c5.79,0.2,4.16,3.45,2.72,6.62
		c0.04,1.47,0.07,2.93,0.11,4.4c2.22,2.98,2.22,5.96,0,8.94C622.45,619.43,622.38,696.42,622.32,773.42z"/>
	<path class="st32" d="M622.4,529.1c-0.08-2.43,0.34-5.02-2.07-6.73c-2.79-0.29-4.43-2.12-5.81-4.31c-0.43-0.92-0.73-1.89-0.92-2.9
		c-0.32-2.58-0.28-5.1,1.1-7.43c0.39-0.32,0.79-0.65,1.19-0.97c1.4,0.06,2.81,0.12,4.21,0.18c-0.54,6.36,7.64,8.87,6.78,15.37
		C626.79,525.49,626.97,528.86,622.4,529.1z"/>
	<path class="st32" d="M622.51,542.43c0-2.98-0.01-5.96-0.01-8.94C628.62,536.47,628.64,539.45,622.51,542.43z"/>
	<path class="st33" d="M533.91,435.79c2.07,0.01,4.14,0.02,6.21,0.02c0.43,0.44,0.85,0.87,1.28,1.31c1.63,3.63,1.64,7.12-0.92,10.38
		c-2.38,1.39-4.63,1.24-6.72-0.61C533.81,443.19,533.86,439.49,533.91,435.79z"/>
	<path class="st34" d="M533.76,446.89c2.14,0,4.29,0.01,6.43,0.01c1.91,2.11,1.84,4.33,0.35,6.62c-2.17,1.74-4.33,1.99-6.46-0.07
		c0,0-0.98,0.16-0.98,0.16C533.32,451.36,533.54,449.13,533.76,446.89z"/>
	<path class="st35" d="M597.94,839.81c-2.19,0.02-4.39,0.04-6.58,0.06c-1.26-1.24-1.97-2.73-2.05-4.5c0.06-1.74,0.6-3.29,1.77-4.6
		c3.15-2.51,7.12-2.35,10.76-3.27c2.2-0.29,4.22,0.12,6,1.5c1.61,1.32,3.19,2.69,3.99,4.71c-0.08,1.74-1.1,2.78-2.59,3.49
		C605.62,838.67,601.08,836.2,597.94,839.81z"/>
	<path class="st36" d="M524.95,835.88c0.64-0.07,1.28-0.19,1.9-0.38c0.8-0.71,1.72-1.18,2.75-1.45c5.12,0.64,10.51-2.44,15.42,1.1
		c0.89,1.52,0.99,3.02-0.1,4.5c-6.7,0.01-13.4,0.03-20.1,0.04C523.35,838.38,523.33,837.11,524.95,835.88z"/>
	<path class="st37" d="M620.23,833.3c1.28,2.1,2.56,4.2,3.84,6.3c-3.49,0.04-6.98,0.09-10.47,0.13c-2.16-1.73-1.57-3.88-0.94-6.05
		c0.72-0.89,1.64-1.41,2.78-1.57c1.61,0.17,3.34-0.04,4.58,1.39L620.23,833.3z"/>
	<path class="st38" d="M591.13,835.5c0.08,1.45,0.15,2.91,0.23,4.36c-4.5,0.01-9,0.02-13.5,0.03c-0.73-0.99-0.8-2.02-0.23-3.1
		c0.96-1.47,2.28-2.47,3.93-3.05C585.04,832.78,588.31,832.94,591.13,835.5z"/>
	<path class="st39" d="M544.93,839.66c0.04-1.27,0.08-2.55,0.12-3.82c-0.18-1.41,0.5-2.41,1.53-3.25c0.75-0.4,1.56-0.62,2.41-0.71
		c0.84,0.03,1.66,0.2,2.44,0.51c1.11,0.6,2.05,1.4,2.94,2.29c0.89,0.88,1.65,1.85,2.17,2.99c0.21,0.87-0.05,1.56-0.78,2.07
		C552.14,839.72,548.54,839.69,544.93,839.66z"/>
	<path class="st40" d="M597.94,839.81c0.63-9.56,7.77-1.74,11.08-4.15c1.25,2.33-0.59,3.07-2.06,3.99
		C603.95,839.7,600.95,839.75,597.94,839.81z"/>
	<path class="st41" d="M578.22,837.68c-0.12,0.74-0.24,1.48-0.36,2.22c-0.75-0.04-1.5-0.08-2.25-0.12
		c-4.17-1.41-7.84-3.09-4.71-8.53c1.44-1.28,3.09-1.53,4.91-1C578.71,832.04,579.89,834.4,578.22,837.68z"/>
	<path class="st42" d="M555.75,839.75c-0.01-0.65-0.01-1.29-0.02-1.94c2.34-2.81,5.78-2.98,8.97-3.79c1.73-0.18,3.35,0.11,4.76,1.2
		c0.76,1.63,0.94,3.2-0.41,4.64C564.61,839.83,560.18,839.79,555.75,839.75z"/>
	<path class="st43" d="M569.05,839.87c0.01-1.45,0.01-2.9,0.02-4.35c-1.24-0.96-1.31-2.19-0.79-3.55c0.56-0.73,1.3-1.16,2.22-1.29
		c0.3,0.33,0.6,0.66,0.9,0.99c-1.01,3.96,2.08,5.79,4.22,8.1C573.42,839.81,571.23,839.84,569.05,839.87z"/>
	<path class="st44" d="M606.96,839.64c0.69-1.33,1.38-2.66,2.06-3.99c0.68-0.74,1.36-1.48,2.04-2.22c0.81-0.59,1.64-0.63,2.48-0.06
		c0.02,2.12,0.04,4.24,0.06,6.36C611.39,839.7,609.18,839.67,606.96,839.64z"/>
	<path class="st45" d="M524.95,835.88c-0.04,1.27-0.08,2.55-0.12,3.82c-2.2,0.03-4.4,0.05-6.59,0.08c0.67-1.37,1.33-2.74,2-4.1
		C521.8,835.75,523.38,835.82,524.95,835.88z"/>
	<path class="st46" d="M540.59,386.81c5.11,0.74,6.58-2.04,6.3-6.51c0.86-0.75,1.85-0.99,2.96-0.79c2.12,0.71,4.02,1.67,4.78,4.01
		c-1.19,5.76-2.66,11.44-5.1,16.84c-2.44,2.16-5.21,2.34-8.18,1.43c-1.13-0.49-1.99-1.29-2.57-2.38c-1.05-3.57-1.17-7.04,1.08-10.26
		C540.1,388.36,540.34,387.59,540.59,386.81z"/>
	<path class="st47" d="M540.19,424.69c-1.46,0.01-2.92,0.01-4.38,0.02c0.1-5.1,0.2-10.2,0.3-15.3c1.82-1.65,3.52-1.39,5.13,0.33
		C543.64,414.92,544.22,419.97,540.19,424.69z"/>
	<path class="st48" d="M539.86,389.14c-0.01,3.72-0.02,7.43-0.03,11.15c-1.25,1.13-2.56,1.32-3.94,0.22"/>
	<path class="st49" d="M535.89,400.52c1.31-0.07,2.63-0.15,3.94-0.22c0,0,0.97-0.15,0.97-0.15c1.81,3.1,2.05,6.08-0.64,8.85
		c-1.35,0.14-2.69,0.27-4.04,0.41C536.04,406.44,535.96,403.48,535.89,400.52z"/>
	<path class="st50" d="M613.85,449.06c-1,2.2,0.78,5.36-2.36,6.83c-7.69-1.73-4.51-8.06-5.38-12.69c0.02-2.75,0.89-5.2,2.68-7.3
		l0.4-0.18c1.58-1.12,3.01-1.36,3.98,0.75C613.4,440.66,613.63,444.86,613.85,449.06z"/>
	<path class="st51" d="M613.33,464.49c0.75,0.81,1.49,1.62,2.24,2.44c0.1,13.28,0.21,26.55,0.31,39.83c0,0-0.27,0.13-0.27,0.13
		c-6.68-1.68-4.65-7.29-5.1-11.64c-0.82-7.93,1.65-16.24-2.81-23.75C607.36,467.39,606.71,463.01,613.33,464.49z"/>
	<path class="st52" d="M561.99,330.92c0.32-4.32,2.6-6.52,6.97-6.47c7.62,2.53,3.21,9.06,4.56,13.68c0.49,4.78,1.08,9.55,0.89,14.37
		c-0.03,31.27,0.04,62.53-0.04,93.79c-0.01,4.75,0.56,9.59-1.26,14.19c-0.67,1.38-1.77,2.12-3.3,2.24
		c-3.49-2.21-3.47-5.84-3.79-9.33c-0.43-6.14,0.16-12.29-0.14-18.43c-0.1-21.95,0.16-43.9,0.05-65.83
		c0.02-3.58,0.08-7.17,0.14-10.74c0.23-7.06-1.32-13.66-5.22-19.66C559.87,335.92,560.53,333.36,561.99,330.92z"/>
	<path class="st53" d="M571.62,337.72c-1.19-4.36,1.64-9.53-2.66-13.27c0.75-0.74,1.5-1.48,2.26-2.22
		c7.99,3.63,3.48,10.56,4.25,16.09C573.99,339.39,572.67,339.4,571.62,337.72z"/>
	<path class="st54" d="M561.99,330.92c0.11,3.11,0.22,6.22,0.34,9.33c-0.39,0.32-0.79,0.64-1.18,0.97c-1.6,0.41-3,0.19-3.99-1.28
		c-0.32-1.53-0.3-3.02,0.68-4.35c0.09-1.34,0.18-2.69,0.27-4.03C559.4,331.35,560.7,331.13,561.99,330.92z"/>
	<path class="st55" d="M608.8,435.89c0.01,2.31,0.02,4.62,0.03,6.92c-2.84,3.19,2,9.15-4.05,11.19c-1-0.68-1.75-1.56-2.29-2.64
		c-4.45-10.8-8.3-21.66-3.01-33.34c1.7-1.24,3.4-1.4,5.09,0.03C606.37,423.91,600.47,431.59,608.8,435.89z"/>
	<path class="st56" d="M604.95,390.84c-0.12,3.15-0.23,6.3-0.35,9.45c-1.54,1.3-3.21,1.26-4.95,0.47
		c-4.52-4.03-5.26-7.92,0.46-11.55"/>
	<path class="st57" d="M600.29,400.29c1.44,0,2.87,0,4.31,0c-0.01,5.92-0.02,11.84-0.03,17.76c-1.43-0.01-2.87-0.01-4.3-0.02
		c-4.39-5.13-3.5-10.71-1.38-16.39C599.35,401.19,599.82,400.74,600.29,400.29z"/>
	<path class="st58" d="M546.53,366.83c0.99-4.97,1.97-9.95,2.96-14.92c4.53-0.61,4.2-3.93,4.01-7.18c0,0,0.65,0.41,0.65,0.41
		c4.8,0.86,4.05,4.74,3.48,7.62c-1.87,9.45-4.58,18.69-8.55,27.51c-0.73,0-1.46,0.01-2.19,0.02"/>
	<path class="st59" d="M581.78,334.3c0.99-0.19,1.97-0.39,2.96-0.58c0.14,0.52,0.13,1.04-0.05,1.56c-0.1,3.96-0.2,7.92-0.3,11.89
		c-6.63,1.21-6.14-2.49-4.73-6.84C580.37,338.31,581.07,336.31,581.78,334.3z"/>
	<path class="st60" d="M620.07,542.43c0.05,72.9,0.09,145.81,0.15,218.71c0,4.07,0.17,8.13,0.27,12.2
		c-0.11,14.86-0.21,29.72-0.32,44.58c-1.92,1.33-3.72,1.13-5.4-0.45c-2.03-2.97-2.18-6.36-2.16-9.78c-0.01-11.72,0-23.43-0.07-35.16
		c0.05-52.86,0.02-105.71-0.01-158.55c0.1-19.21-0.02-38.43,0.08-57.64c0.02-4.4-0.5-8.91,1.79-13.02
		C616.01,541.2,617.92,541.01,620.07,542.43z"/>
	<path class="st61" d="M615.67,817.74c1.5,0.06,3,0.11,4.5,0.17c0.19,3.85-0.14,7.59-2.25,10.97c-0.61,0.08-1.23,0.16-1.85,0.21
		c-3.5-0.97-4.49-3.62-4.62-6.86C611.92,819.86,612.26,817.36,615.67,817.74z"/>
	<path class="st62" d="M579.66,340.32c0.75,2.85,0.35,6.49,4.73,6.84c0.04,2.16,0.08,4.32,0.13,6.48c-1.66,1.62-3.25,3.41-5.95,2.95
		c-1.11-0.55-1.91-1.39-2.42-2.52c-1.46-4.84-1.7-9.53,1.76-13.75C578.48,340.32,579.07,340.32,579.66,340.32z"/>
	<path class="st63" d="M571.62,337.72c1.28,0.2,2.57,0.4,3.85,0.6c0.06,0.65,0.16,1.3,0.3,1.93c1.88,3.54,0.97,7.24,0.61,10.9
		c-1.58,1.5-3.23,1.69-4.96,0.24C571.49,346.84,571.56,342.28,571.62,337.72z"/>
	<path class="st59" d="M575.38,351.41c0.13-3.72,0.26-7.44,0.4-11.15c0.71,0.04,1.42,0.06,2.12,0.07
		c0.14,5.11,0.28,10.22,0.42,15.34c2.02,2.98,2.32,5.98,0.15,9.03c-1.25,0.74-2.43,0.63-3.52-0.34
		C572.86,359.97,572.96,355.65,575.38,351.41z"/>
	<path class="st64" d="M600.33,373.34c-0.76,0.82-1.51,1.65-2.27,2.47c-3.53-3.68-2.88-7.37,0-11.05c0.52,0.13,1.04,0.17,1.57,0.12
		C599.86,367.7,600.1,370.52,600.33,373.34z"/>
	<path class="st65" d="M593.61,351.27c-0.75,0.81-1.49,1.62-2.24,2.42c-9.1-2.36-1.07-7.87-2.15-11.7"/>
	<path class="st66" d="M549.08,380.28c-2.4-9.5,4.17-17.16,5.41-25.94c0.45-3.19,2.34-6.2-0.34-9.19c1.17-3.21,1.05-6.92,3.69-9.56
		c0.08,1.62,0.16,3.25,0.23,4.87c1.57,1.78,2.4,3.87,2.55,6.23c0.18,2.27,0.15,4.54-0.02,6.81c-0.11,1.69-0.4,3.35-0.82,5
		c-1.49,4.26-1.05,8.84-2.16,13.17c-1.46,3.62-0.73,8.1-4.22,10.94C551.62,382.48,549.98,382.05,549.08,380.28z"/>
	<path class="st67" d="M598.06,364.76c0,3.69,0,7.37,0,11.05c-0.06,1.49-0.13,2.98-0.19,4.47c-6.29,2.56-6.45-2.95-8.29-6.28
		c-0.79-2.98-0.95-5.92,0.7-8.71c0.86-1.06,1.9-1.28,3.11-0.64C594.95,364.69,596.51,364.72,598.06,364.76z"/>
	<path class="st68" d="M593.39,364.65c-0.79,0.05-1.57,0.1-2.36,0.16c-1.71,1.31-3.36,1.1-4.98-0.2c-1.84-2.98-1.68-5.86,0.45-8.63
		c1.59-0.02,3.17-0.05,4.76-0.07C592.74,358.63,593.78,361.47,593.39,364.65z"/>
	<path class="st69" d="M580.16,355.88c0.92-1.77,2.54-2.19,4.36-2.25c0.32,0.59,0.43,1.21,0.32,1.88c1.66,4.28,0.17,9.15,2.48,13.31
		c0.55,4.59,0.28,9.2,0.38,13.81c-0.49,5.93,1.23,12.18-2.44,17.67c-1.91,1.33-3.82,1.32-5.73,0.01
		c-3.74-5.64-1.93-12.04-2.46-18.12C576.5,373.24,578.31,364.56,580.16,355.88z"/>
	<path class="st70" d="M584.68,369.08c0.05-4.52,0.1-9.04,0.15-13.57c0.54,0.22,1.11,0.38,1.68,0.46c0.17,2.87,0.34,5.75,0.51,8.62
		c1.11,1.4,1.2,2.89,0.41,4.46C586.52,369.85,585.61,369.82,584.68,369.08z"/>
	<path class="st71" d="M591.45,373.6c2.71,1.68,1.61,7.03,6.42,6.68c0.47,3.05-0.84,6.54,2.23,8.93c-2.44,3.73-2.64,7.43,0.18,11.08
		c0,0-0.4-0.1-0.4-0.1c-0.87,0.87-1.9,1.4-3.12,1.6c-1.9,0.02-3.51-0.57-4.6-2.22c-2.67-5.55-0.78-11.85-2.88-17.5
		C588.85,378.95,588.71,375.9,591.45,373.6z"/>
	<path class="st72" d="M540.16,409c0.21-2.95,0.43-5.9,0.64-8.85c2.73,0.03,5.45,0.06,8.17,0.09c0.42,0.4,0.85,0.8,1.28,1.19
		c2.35,4.97,1.96,10.05,0.62,15.15c-0.43,0.97-1.04,1.84-1.8,2.58c-3.32,1.68-4.2,5.28-6.19,8.02c-0.94,0.58-1.82,0.47-2.64-0.24
		c-0.01-0.75-0.03-1.49-0.04-2.24C540.18,419.46,540.17,414.23,540.16,409z"/>
	<path class="st73" d="M540.23,426.93c0.73,0,1.46-0.01,2.19-0.01c1.77-1.44,3.5-1.26,5.2,0.14c1.89,3.09,1.84,6.13-0.25,9.11
		c-2.47,1.69-4.86,1.48-7.15-0.37c0,0-0.09,0.01-0.09,0.01C540.16,432.85,540.19,429.89,540.23,426.93z"/>
	<path class="st74" d="M613.33,464.49c-4.7,0.32-4.22,3.62-3.92,6.81c3.39,9.91,1.95,19.96,0.92,30c-0.68,1.27-1.74,1.81-3.16,1.61
		c-3.33-10.41-0.07-21.38-1.5-29.78c0.03,7.47,0.02,17.07-0.01,26.68c0.07,1.35-0.42,2.45-1.48,3.28c-2.05,0.64-3.75,0.11-5.09-1.56
		c-3.96-10.39-1.49-21.17-1.92-31.77c0.13-1.78,0.38-3.55,0.95-5.25c0.4-1.07,1.03-2.01,1.86-2.8c2.9-1.87,6.13-1.98,9.44-1.74
		C612.08,460.29,613.76,461.48,613.33,464.49z"/>
	<path class="st55" d="M609.4,459.97c-2.26,3.64-5.79,2.09-8.91,2.18c-4.79-1.72-3.23-4.75-1.61-7.79c1.65-1.72,3.43-2.63,5.63-0.88
		l0.19,0.15c1.57,1.53,3.54,2.64,4.71,4.57C609.37,458.79,609.37,459.38,609.4,459.97z"/>
	<path class="st75" d="M609.41,458.2c-2.82-0.23-4.61-1.53-4.71-4.57c4.05-2.59,0.06-8.25,4.14-10.82
		c1.02,4.33-1.67,9.42,2.66,13.07C610.8,456.66,610.1,457.43,609.41,458.2z"/>
	<path class="st76" d="M613.18,822.48c0.96,2.2,1.93,4.41,2.89,6.62c-0.22,0.68-0.3,1.38-0.24,2.09c-0.44,0.29-0.89,0.59-1.33,0.89
		c-2.53-0.2-5.32,1.18-7.49-1.23c-1.01-1.81-2.83-1.85-4.57-2.05c-1.32-1.37-1.46-2.96-0.86-4.69c1.65-2.68,4.12-3.83,7.2-3.87
		C610.56,820.37,612.04,821.09,613.18,822.48z"/>
	<path class="st77" d="M620.02,833.51c-1.41-0.13-2.81-0.27-4.22-0.4c-0.77-0.38-1.1-0.84-0.97-1.39c0.13-0.6,0.31-0.89,0.52-0.89
		c0,0,0.49,0.36,0.49,0.36C617.69,831.13,619.4,831.34,620.02,833.51z"/>
	<path class="st78" d="M526.9,815.55c-1.46-2.2-1.43-4.4-0.04-6.61c0.65-1.83,1.49-3.57,2.37-5.31c1.83-4.27,1.15-8.76,1.15-13.16
		c0.04-52.1,0.46-104.2-0.2-156.29c-0.24-18.9,1.48-37.22,6.77-55.27c0.62-11.58-1.54-23.28,1.53-34.76
		c0.68-1.38,1.79-2.13,3.32-2.26c1.26,0.77,2.17,1.84,2.73,3.2c1.43,4.68,0.98,9.51,0.99,14.29c0.04,70.45-0.03,140.9,0.08,211.34
		c0.02,12.55-2.93,24.85-2.38,37.43c0.2,4.62-1.9,8.64-6.86,10.27C532.48,819.87,529.52,818.26,526.9,815.55z"/>
	<path class="st29" d="M531.3,808.91c-1.48,0.01-2.96,0.02-4.44,0.02c-3.5-3.34-2.06-7.66-2.06-11.56
		c-0.09-63.23-0.01-126.46-0.12-189.69c-0.02-9.98,3.49-19.66,2.13-29.7c0.68-0.27,1.36-0.55,2.04-0.82
		c7.39,3.04,6.38,9.52,5.01,14.97c-1.39,5.53-1.45,10.93-1.45,16.44c-0.03,62.79,0,125.59-0.07,188.38
		C532.33,800.93,533.36,805.08,531.3,808.91z"/>
	<path class="st29" d="M526.8,560.14c1.67-10.33-3.28-20.65-0.02-30.97c0,0,0.14-0.13,0.14-0.13c2.2-1.98,4.42-1.98,6.65-0.05
		c0.82,1.32,0.72,2.7,0.29,4.1c-0.25,0.86-0.58,1.7-0.93,2.52c-0.42,1.26-0.59,2.57-0.38,3.91c0.47,1.92,1.07,3.8,1.32,5.78
		c-0.64,5.68,3.16,12.94-5.57,15.73C527.8,560.73,527.3,560.43,526.8,560.14z"/>
	<path class="st79" d="M529.09,835.57c-0.75-0.02-1.49-0.04-2.24-0.06c0.04-5.18,0.08-10.35,0.13-15.53c1.8-1.4,3.53-1.26,5.21,0.22
		C534.87,826.07,535.53,831.54,529.09,835.57z"/>
	<path class="st29" d="M526.81,577.98c-3.2-5.95-3.19-11.9,0-17.85c0,0,0.12,0.1,0.12,0.1c4.15,5.89,4.15,11.77,0,17.66
		L526.81,577.98z"/>
	<path class="st29" d="M531.42,820.09c-1.48-0.03-2.97-0.07-4.45-0.1c-0.03-1.48-0.05-2.95-0.08-4.43c2.21,0.75,4.42,1.5,6.62,2.25
		c0.57,0.79,0.65,1.63,0.25,2.52C532.93,820.87,532.14,820.82,531.42,820.09z"/>
	<path class="st80" d="M533.5,515.75c1.87-3.91,2.72-8.43,6.71-11.05c2.69-1.94,5.51-2.67,8.6-0.92c1.45,1.37,1.86,3.11,1.8,5.02
		c-0.78,7.46-2.71,14.39-9.03,19.27C529.2,529.12,528.63,528.25,533.5,515.75z"/>
	<path class="st81" d="M548.88,504.53c-2.89,0.06-5.78,0.11-8.67,0.17c0.73-8.6,1.74-17.19,2.09-25.81c0.19-4.72,0.99-8,6.61-7.55
		C553.98,482.41,554.03,493.47,548.88,504.53z"/>
	<path class="st82" d="M548.88,504.53c0.01-11.07,0.03-22.13,0.04-33.2c0.25-1.54,0.5-3.08,0.75-4.61c7.26-1.1,6.47,4.63,6.69,8.59
		c0.51,9.21,0.45,18.46,0,27.7c-0.68,3.38-1.18,6.91-5.86,6.87c-0.56-0.37-1.12-0.74-1.68-1.11
		C548.84,507.36,548.86,505.95,548.88,504.53z"/>
	<path class="st83" d="M553.76,504.85c-0.08-9.75-0.08-19.51-0.28-29.26c-0.07-3.38,1.28-7.57-3.82-8.87
		c-0.39-1.33-0.79-2.66-1.19-3.98c0.39-0.42,0.78-0.85,1.17-1.27c1.67-0.8,3.38-0.86,5.13-0.31c1.15,0.52,1.99,1.34,2.57,2.46
		c0.81,1.71,1.15,3.53,1.27,5.41c-0.5,11.38,1.88,22.89-1.58,34.13C556.25,504.3,555.15,504.86,553.76,504.85z"/>
	<path class="st78" d="M533.5,515.75c-1.93,7.62-1.45,13.3,8.89,11.1c0.23,0.43,0.45,0.87,0.68,1.3c-0.17,1-0.63,1.83-1.42,2.49
		c-2.6,1.52-5.2,3.14-8.13,0.66c-1.56-2.6-4.19-2.12-6.6-2.27c-1.75-5.51,3.19-8.75,4.49-13.22
		C532.11,515.77,532.8,515.75,533.5,515.75z"/>
	<path class="st84" d="M534.08,453.45c2.03,0.05,4.06,0.1,6.1,0.14c0.35,0.32,0.69,0.65,1.05,0.97c0.98,1.76,1.08,3.62,0.62,5.54
		c-0.39,0.88-0.95,1.62-1.66,2.27C532.07,463.54,533.4,458.27,534.08,453.45z"/>
	<path class="st85" d="M540.17,462.37c0.01-0.71,0.02-1.43,0.03-2.14c1.78-2.59,3.64-5.07,7.15-5.36c1.09,0.1,1.98,0.58,2.68,1.41
		c1.01,2.09,0.93,4.08-0.52,5.95c-0.34,0.19-0.68,0.36-1.04,0.52C545.71,462.62,542.94,462.49,540.17,462.37z"/>
	<path class="st86" d="M615.67,518c1.55,1.45,3.11,2.91,4.66,4.36c-0.07,2.99-0.15,5.97-0.23,8.96c-1.6,1.32-3.26,1.25-4.97,0.22
		c-1.2-1.47-1.77-3.18-2-5.04C612.98,523.38,613.12,520.33,615.67,518z"/>
	<path class="st87" d="M615.85,531.22c1.42,0.03,2.83,0.07,4.25,0.1c-0.01,3.7-0.02,7.4-0.03,11.1c-1.42-0.02-2.84-0.04-4.25-0.06
		C612.46,538.64,612.45,534.93,615.85,531.22z"/>
	<path class="st88" d="M608.92,502.54c0.16-10.41,0.32-20.83,0.48-31.24c5.9,1.44,3.58,6.27,4.05,9.91
		c1.09,8.53-2.3,17.43,2.15,25.68c-0.03,3.07-0.05,6.13-0.08,9.2c-4.23,0.1-4.77-4.27-7.42-6.1
		C606.03,507.25,605.1,504.63,608.92,502.54z"/>
	<path class="st89" d="M609.25,508.23c4.26,0.89,3.98,5.39,6.27,7.85c-0.15,0.66-0.11,1.3,0.14,1.92c0.01,2.95,0.03,5.9,0.04,8.84
		c-1.43,1.41-2.77,2.95-4.94,3.24c-1.07,0-2.07-0.26-3-0.79c-1.35-1.01-2.26-2.32-2.81-3.91c-0.93-3.33-0.9-6.69-0.26-10.07
		C605.44,512.47,606.45,509.77,609.25,508.23z"/>
	<path class="st90" d="M540.21,435.8c2.2,0,4.41,0.01,6.61,0.01c4.22,6.4,4.8,12.64-0.85,18.59c-2.07,0.85-3.99,0.57-5.73-0.84
		c0,0-0.06,0.04-0.06,0.04c0-2.23,0.01-4.46,0.01-6.69C540.2,443.2,540.21,439.5,540.21,435.8z"/>
	<path class="st91" d="M602.6,824.55c-0.05,1.41-0.1,2.82-0.15,4.23c-3.07,3.96-7.46,1.66-11.22,2.38
		c-0.34-0.34-0.69-0.67-1.04-1.01c-1.18-2.3-1.16-4.64-0.24-7.01c0.49-0.86,1.21-1.44,2.14-1.74c0.95-0.02,1.87,0.16,2.74,0.53
		c1.71,0.8,3.6,0.8,5.43,1.12C601.21,823.31,601.99,823.8,602.6,824.55z"/>
	<path class="st92" d="M591.13,835.5c-3.64-0.01-7.28-0.01-10.92-0.02c-2.34-6.03,2.17-6.01,5.9-6.68c2.01,0.1,3.66,1.03,5.2,2.25
		c0,0-0.07,0.11-0.07,0.11C591.2,832.61,591.17,834.06,591.13,835.5z"/>
	<path class="st93" d="M615.35,830.82c0.15,0.76,0.3,1.53,0.45,2.29c-0.75,0.09-1.5,0.18-2.25,0.26c-0.83,0.02-1.65,0.04-2.48,0.06
		c-1.74-0.25-3.42-0.6-4.05-2.59C609.8,830.83,612.57,830.83,615.35,830.82z"/>
	<path class="st94" d="M531.42,820.09c0.69-0.02,1.38-0.05,2.07-0.07c2.48-2.25,5.48-2.85,8.7-2.79c0.76,0.73,1.22,1.61,1.32,2.67
		c-0.27,3.6-4.01,3.94-5.69,6.13c0.13,3.28,3.04,1.89,4.61,2.73c2.36,0.85,5.39,1.06,4.68,4.84c-0.69,0.75-1.37,1.5-2.06,2.26
		c-5.29-1.9-10.7,3.49-15.96-0.27C532.22,830.76,531,825.3,531.42,820.09z"/>
	<path class="st95" d="M586.87,831.09c-3.14,0.06-6.49-0.18-6.66,4.39c-0.67,0.73-1.33,1.46-1.99,2.19
		c-0.86-2.2-1.72-4.41-2.59-6.61c-2-2.21-2.58-4.82-2.15-7.7c0.2-1.05,0.59-2.04,1.12-2.96c3.07-3.3,7.93-0.97,11.24-3.57
		c0.93-0.41,1.9-0.68,2.91-0.84c1.55-0.15,3.03,0.09,4.41,0.84c0.79,0.68,1.27,1.53,1.46,2.55c-0.07,1.03-0.46,1.92-1.22,2.64
		c-0.67,0.16-1.33,0.35-1.98,0.58C588.1,824.47,589.8,829.03,586.87,831.09z"/>
	<path class="st96" d="M542.58,819.98c-0.14-0.69-0.26-1.38-0.37-2.08c5.12-89.05,1.22-178.19,2.41-267.27
		c0.04-2.94,0.18-5.95-2.1-8.34l-0.06,0.09c-0.74-0.67-1.27-1.48-1.62-2.41c-0.26-1.49-0.06-2.92,0.59-4.28
		c2.4-2.53,3.03-6.05,4.97-8.87c1.04-0.55,2.08-0.58,3.18-0.18c1.68,0.96,2.73,2.35,3.08,4.28c0.1,1.35,0.01,2.67-0.25,3.99
		c-0.5,93.59-0.04,187.15-0.2,280.71c0.01,2.07,0,4.15-0.05,6.23c-0.14,4.08,0.06,8.27-3.42,11.35c-0.55,0.11-1.09,0.24-1.63,0.39
		c-1.59-2.65-4.32-2.35-6.83-2.6c-1.15-3.4,2.58-4.56,3.25-7.12C543.82,822.41,543.45,821.14,542.58,819.98z"/>
	<path class="st97" d="M569.07,831.56c0,1.32,0,2.64-0.01,3.96c-1.51,0.06-3.02,0.12-4.54,0.17c-3.59,1.53-7.2,1.33-10.82,0.14
		c-0.87-0.81-1.74-1.62-2.61-2.44c-0.82-1.82,0.19-2.79,1.62-3.56c0.94-0.32,1.92-0.47,2.91-0.49c3.76,0.92,7.6-0.23,11.39,0.34
		C567.95,830.04,568.64,830.66,569.07,831.56z"/>
	<path class="st98" d="M553.98,830.79c-0.96,0.87-1.92,1.73-2.89,2.6c-0.79-0.06-1.57-0.13-2.36-0.19c0.1-3.68,0.19-7.37,0.29-11.05
		c1.7-1.27,3.32-1,4.91,0.22C555.96,825.17,556.07,827.98,553.98,830.79z"/>
	<path class="st99" d="M553.71,835.83c3.61-0.05,7.22-0.09,10.82-0.14c-2.34,3.16-5.79,1.75-8.8,2.13
		C555.05,837.15,554.38,836.49,553.71,835.83z"/>
	<path class="st100" d="M575.56,822.48c0.02,2.86,0.04,5.73,0.07,8.59c-1.41,0.2-2.83,0.4-4.24,0.6c0,0-0.41-0.9-0.41-0.9
		c-2.17-2.74-2.12-5.52-0.15-8.34C572.42,821.23,574,820.86,575.56,822.48z"/>
	<path class="st101" d="M571.12,822.35c-0.05,2.8-0.1,5.6-0.15,8.41c-0.66,0.21-1.29,0.48-1.9,0.8c0,0-0.19-1.06-0.19-1.06
		c-3.52-2.18-8.52,2.58-11.43-2.44c1.31-4.93,6.36-4.12,9.52-6.23c0.95-0.33,1.93-0.42,2.93-0.34
		C570.31,821.78,570.72,822.07,571.12,822.35z"/>
	<path class="st58" d="M553.41,382.61c0.67-3.74-1.27-7.97,2.08-11.21c3.4,2.69,2.99,6.55,3.15,10.23c0.04,2.43-0.31,4.83-0.85,7.19
		c-1.49,3.83-1.03,8.3-3.76,11.73c-1.69,0.99-3.33,1.05-4.9-0.26c0,0-0.16-0.06-0.16-0.06C548,393.74,550.14,388.03,553.41,382.61z"
		/>
	<path class="st102" d="M555.65,388.99c0.03-2.16,0.06-4.33,0.08-6.49c3.09-8.01-0.68-16.61,2.11-24.65
		c0.06-1.4,0.13-2.79,0.19-4.19c1.91-1.47,3.68-1.24,5.34,0.43c3.41,6.24,1.57,13.05,2.12,19.61c-0.3,13.55,0.49,27.11-0.45,40.63
		c-0.19,1.13-0.54,2.24-1.01,3.29c-5.53,7.36-2.41,15.99-3.44,24.01c-0.12,0.94-0.15,1.52,0.29,1.46c0.17-0.02,0.27-0.55,0.42-0.95
		c1.56-3.43,1.45-8.77,7.67-6.35c0,5.94-0.01,11.89-0.01,17.83c-1.56,1.49-2.92,3.24-5.12,3.89c-3.25,0.92-6.46,1.04-9.59-0.46
		c-0.9-0.63-1.5-1.48-1.76-2.56c0.16-3.67,0.33-7.34-0.72-10.95c-0.22-1.72-0.12-3.41,0.21-5.11c1.37-7.25,0.47-14.56,0.63-21.84
		C552.17,407.22,554.37,398.16,555.65,388.99z"/>
	<path class="st103" d="M579.94,382.68c0.12,5.88,0.23,11.77,0.35,17.65c5.8,10.34,2.63,21.33,2.39,32.11
		c-2.7,8.25-1.35,16.79-1.7,25.21c0.09,2.69-0.28,5.31-0.91,7.91c-2.6,12.28-0.62,24.72-1.26,37.06
		c-0.26,5.03,0.84,10.28-2.32,14.86c-1.66,1.6-3.52,1.82-5.56,0.82c-4.57-6.6-2.3-14.11-2.63-21.23c-0.42-9.08,0.18-18.2-0.38-27.29
		c-0.4-1.91-0.62-3.81,0.07-5.71c0.39-0.51,0.78-1.02,1.17-1.53c0.7,0.1,1.39,0.04,2.06-0.16c3.33-3.73,2.21-8.32,2.27-12.61
		c0.32-23.79-0.43-47.58,0.4-71.36c0.36-1.29,1.09-2.33,2.19-3.1C581,375.85,577.73,380.71,579.94,382.68z"/>
	<path class="st104" d="M575.94,376.39c0,26.08,0.02,52.16-0.02,78.25c-0.01,3.45,1.32,7.9-4.71,7.76c0.07-37,0.15-74,0.22-110.99
		c1.32,0,2.63,0,3.95,0.01c0.18,4.27,0.37,8.54,0.55,12.81C578.4,368.27,578.39,372.33,575.94,376.39z"/>
	<path class="st105" d="M568.99,435.79c-6.17,0.03-2.85,7.07-6.58,8.9c-3.51-8.88-3.35-17.76-0.01-26.65l0,0
		c2.55-14.28,0.46-28.67,1.14-43c0.08-2.58-0.23-5.19,0.37-7.74c1.61-1.61,3.31-1.76,5.12-0.34
		C569.02,389.9,569.01,412.85,568.99,435.79z"/>
	<path class="st106" d="M564.62,366.97c0,2.22,0,4.44-0.01,6.66c-0.74,0.98-1.48,1.03-2.22,0c0-6.66,0-13.33,0-19.99
		c-1.78-1.88-2.2-4.2-2.14-6.68c-0.07-2.47,0.37-4.79,2.02-6.74c0,0,0.05,0.04,0.05,0.04c8.92,2.33,4.49,10.39,6.71,15.6
		C565.38,358.69,568.22,364.11,564.62,366.97z"/>
	<path class="st107" d="M564.62,366.97c0.95-3.91-2.68-9.64,4.41-11.11c0,3.7,0,7.4,0,11.1
		C567.57,366.96,566.1,366.96,564.62,366.97z"/>
	<path class="st108" d="M564.61,455.79c0.94-1.76,2.55-2.17,4.36-2.17c0.05,2.98,0.11,5.96,0.17,8.94c0,0,0.22,0.3,0.22,0.3
		c-1.79,1-3.54,1.03-5.25-0.19C562.58,460.25,562.85,457.97,564.61,455.79z"/>
	<path class="st109" d="M562.28,340.21c0.03,2.25,0.07,4.5,0.1,6.75c-1.41,1.3-2.83,1.31-4.27,0.03c-0.02-2.18-0.03-4.36-0.04-6.54
		C559.48,340.38,560.88,340.3,562.28,340.21z"/>
	<path class="st110" d="M604.5,453.48c-1.76,0.14-3.39,0.55-4.3,2.29c-6.38-1.12-5.08-6.41-5.22-10.43
		c-0.38-11.04-0.59-22.09-0.2-33.14c0.14-4.22-0.02-8.52,3.15-11.93c0.66,0,1.31-0.03,1.96-0.08c0.12,5.95,0.25,11.89,0.38,17.84
		C598.31,430.25,602.47,441.74,604.5,453.48z"/>
	<path class="st111" d="M615.62,613.49c0.02,53.3,0.04,106.59,0.06,159.89c-1.57,0.64-2.77,0.22-3.62-1.24
		c-1.99-3.77-1.66-7.89-1.67-11.93c-0.06-44.3-0.05-88.6,0-132.89c0-4.04-0.33-8.16,1.61-11.95
		C612.82,614.02,614.03,613.4,615.62,613.49z"/>
	<path class="st112" d="M615.62,613.49c-0.69-0.01-1.39-0.02-2.08-0.03c-0.47-0.49-0.94-0.99-1.42-1.47
		c-3.4-11.29-0.95-22.88-1.76-34.3c0.51-16.25-0.93-32.53,0.82-48.76c1.05-1.69,2.72-2.02,4.52-2.08c0.05,1.46,0.1,2.92,0.15,4.38
		c-0.01,3.71-0.02,7.43-0.03,11.14C615.75,566.07,615.68,589.78,615.62,613.49z"/>
	<path class="st113" d="M613.18,822.48c-1.49-0.23-2.98-0.45-4.47-0.68c-0.91-0.98-1.57-2.1-2.01-3.36
		c-0.55-9.05-2.31-18.18,1.41-27.01c1.57-1.54,3.37-1.71,5.32-0.89c2.95,5.82-0.71,12.44,2.19,18.27c0.01,2.98,0.02,5.95,0.04,8.93
		C613.79,818.77,613.49,820.63,613.18,822.48z"/>
	<path class="st114" d="M615.63,808.82c-4.36-5.44-1.11-11.84-2.21-17.69c-3.93-5.94-4.31-11.86,0.12-17.75c0.71,0,1.42,0,2.13,0
		C615.66,785.19,615.65,797,615.63,808.82z"/>
	<path class="st70" d="M579.94,382.68c-2.15-1.92-1.49-4.7-2.19-7.07c-1.4-3.48-1.25-6.97-0.11-10.48c0.22-3.15,0.44-6.31,0.67-9.46
		c0.61,0.12,1.22,0.19,1.84,0.22C580.08,364.81,580.01,373.75,579.94,382.68z"/>
	<path class="st115" d="M577.65,365.13c0.04,3.49,0.07,6.99,0.11,10.48c-0.65,0.16-1.25,0.41-1.81,0.78c0-4.05-0.01-8.1-0.01-12.16
		C576.47,364.59,577.04,364.9,577.65,365.13z"/>
	<path class="st116" d="M557.85,357.85c-0.91,8.2,2.56,16.77-2.11,24.65c-0.08-3.7-0.16-7.4-0.25-11.1
		C556.5,366.92,554.49,361.92,557.85,357.85z"/>
	<path class="st117" d="M558.12,347c1.42-0.01,2.84-0.02,4.27-0.03c0,2.22,0.01,4.45,0.02,6.67c-1.45,0.01-2.91,0.02-4.36,0.03
		C558.06,351.44,558.09,349.22,558.12,347z"/>
	<path class="st118" d="M591.45,373.6c0.02,3.01,0.04,6.01,0.06,9.02c-0.45,0.3-0.89,0.6-1.34,0.91c-1.08,0.23-2.13,0.13-3.16-0.25
		c-0.78-0.79-1.19-1.74-1.23-2.85c0.28-3.7-0.74-7.48,0.7-11.11c0.18-1.57,0.37-3.14,0.55-4.71c1.34,0.07,2.68,0.14,4.01,0.21
		C591.17,367.74,591.31,370.67,591.45,373.6z"/>
	<path class="st119" d="M580.01,433.46c0.09-11.05,0.19-22.09,0.28-33.14c1.45-0.02,2.9-0.03,4.34-0.05
		c1.48-0.65,2.65-0.29,3.52,1.07c3.43,10.09,1.61,20.52,1.65,30.77c0.05,14.39,1.14,28.81-0.73,43.16
		c-0.46,1.25-1.22,2.31-2.25,3.17c-5,0.22-5.81-3.78-7.21-7.18c1.98-8.6,3.85-17.21-0.48-25.72
		C579.45,441.51,578.2,437.37,580.01,433.46z"/>
	<path class="st120" d="M586.63,400.26c-0.67,0-1.33,0.01-1.99,0.01c-0.01-5.93-0.02-11.86-0.03-17.79
		c0.74-1.03,1.41-0.94,2.01,0.13l0.4-0.22c3.12,3.88,2.9,8.38,2.44,12.94C589.09,397.31,588.36,399.07,586.63,400.26z"/>
	<path class="st121" d="M586.62,382.61c-0.67-0.06-1.34-0.1-2.01-0.13c0.02-4.47,0.05-8.93,0.08-13.4c0.6,0.07,1.2,0.14,1.79,0.22
		C586.52,373.74,586.57,378.17,586.62,382.61z"/>
	<path class="st122" d="M597.92,411.39c0.01,11.37-0.08,22.74,0.07,34.1c0.05,3.51-1.23,7.44,2.21,10.28
		c-1.15,2.18-1.81,4.35,0.28,6.39c0,0-0.68,0.61-0.68,0.61c-2.58,1.8-4.99,1.58-7.26-0.57c-4.29-8.71-0.49-18.4-3.31-27.3
		c-0.38-12.84-0.09-25.68-0.18-38.52c0.35-4.67-1.03-9.6,2-13.88c0,0,0.45,0.1,0.45,0.1c3.99,5.5,1.07,11.79,2.04,17.64
		C597.06,403.16,594.27,408.54,597.92,411.39z"/>
	<path class="st123" d="M597.92,411.39c-7.08-1.51-3.48-7.21-4.37-11.14c1.46,0.01,2.92,0.01,4.38,0.02
		C597.92,403.98,597.92,407.68,597.92,411.39z"/>
	<path class="st124" d="M549.13,400.29c1.46-0.01,2.91-0.03,4.37-0.04c2.33,5.57,0.52,11.4,1.1,17.08c-0.18,3.2,0.46,6.44-0.6,9.59
		c-1.75,1.38-3.55,1.38-5.41,0.21c-2-3.12-1.96-6.16,0.31-9.13C548.97,412.09,549.05,406.19,549.13,400.29z"/>
	<path class="st125" d="M548.9,417.99c0.09,2.99,0.18,5.98,0.27,8.97c2.13,2.43,2.82,5.33,2.79,8.48
		c-0.43,4.13-1.04,8.27-0.17,12.42c0.08,1.81-0.24,3.56-0.79,5.27c-0.44,1.15-1.19,2.04-2.24,2.69c-0.7,0.01-1.4,0.04-2.1,0.07
		c-2.12,0.55-2.62-0.4-2.12-2.29c4.64-5.43,1.33-11.89,2.29-17.79c0-2.97,0-5.93,0-8.9c-2.34-2.97-2.35-5.92,0.03-8.87
		C547.54,418.04,548.22,418.02,548.9,417.99z"/>
	<path class="st126" d="M546.86,418.04c-0.01,2.96-0.02,5.91-0.03,8.87c-1.47,0-2.94,0.01-4.41,0.01
		C542.86,423.44,540.88,418.76,546.86,418.04z"/>
	<path class="st127" d="M599.91,466.89c0.12,11.87,0.25,23.75,0.37,35.62c-0.3,0.55-0.59,1.1-0.88,1.66
		c-3.44,2.82-6.73,3.32-9.73-0.66c-2.47-7.39-1.17-15-1.25-22.53c0.8-3.1,0.47-6.33,1.17-9.45
		C591.73,467.1,594.22,463.44,599.91,466.89z"/>
	<path class="st128" d="M604.74,502.5c0-11.01,0-22.02,0-33.03c0.8-0.02,1.59-0.04,2.39-0.06c0,10.95,0,21.89,0,32.84
		C606.41,503.01,605.61,503.13,604.74,502.5z"/>
	<path class="st129" d="M604.74,502.5c0.79-0.08,1.59-0.16,2.39-0.24c0.6,0.06,1.2,0.16,1.79,0.28c-0.76,1.95-1.43,3.9,0.33,5.7
		c-0.9,2.63-1.8,5.26-2.7,7.89c-3.15-0.25-3.79-2.65-4.39-5.1c-0.49-3.22,0.21-6.12,2.32-8.63L604.74,502.5z"/>
	<path class="st130" d="M599.91,466.89c-4.09-0.86-6.15,2.14-8.57,4.47c-1.93-1.63-2.03-3.7-1.44-5.94c0.7-1.6,1.88-2.63,3.61-2.99
		c2.1,0.11,4.21,0.22,6.31,0.34C599.84,464.14,599.87,465.51,599.91,466.89z"/>
	<path class="st131" d="M604.49,502.4c-0.04,3.02-0.08,6.05-0.12,9.07c-1.48,1.2-3.02,1.15-4.62,0.25
		c-0.75-0.87-1.23-1.86-1.47-2.98c-0.29-2.35,0.53-4.39,1.8-6.3c0,0,0.2,0.07,0.2,0.07C601.68,502.47,603.09,502.43,604.49,502.4z"
		/>
	<path class="st132" d="M608.72,820.05c0.05,0.59,0.05,1.17,0,1.76c-2.04,0.91-4.08,1.83-6.12,2.75c-0.8-0.04-1.6-0.07-2.41-0.11
		c-1.93-1.58-4.89,0.32-6.62-1.96c0,0-0.18-0.46-0.18-0.46c0.06-0.61,0.14-1.22,0.25-1.82c2.47-2.88,5.81-2.83,9.17-2.75
		c1.11,0.07,2.19,0.3,3.24,0.65C607.04,818.62,607.92,819.27,608.72,820.05z"/>
	<path class="st133" d="M542.52,542.29c7.83-1.4,3.88,4.83,3.92,7.09c0.35,21.83,0.21,43.67,0.21,65.5
		c0,61.44-0.09,122.87,0.14,184.3c0.03,6.83-0.81,13.02-4.57,18.71c-2.7,1.54-5.55,2.47-8.71,2.11c0.04-0.74,0.05-1.47,0.02-2.21
		c7.27-2.43,6.45-8.37,6.77-14.33C544.98,716.44,541.01,629.34,542.52,542.29z"/>
	<path class="st134" d="M526.93,577.89c0-5.89,0-11.77,0-17.66c8.71-4.16,2.52-11.98,4.38-17.83c1.25-0.69,2.32-0.48,3.22,0.62
		c3.63,7.31,1.54,15.17,2.16,22.77c0.35,4.3-0.74,8.98,3.49,12.15c-0.39,7.32,2.25,15.25-6,20.73c-1.63,1.08-0.64,6.29-0.64,9.6
		c-0.03,62.69,0.02,125.37-0.1,188.06c-0.01,4.22,1.69,8.93-2.15,12.57c0-73.02,0.05-146.03-0.13-219.05
		C531.16,585.71,534.09,579.8,526.93,577.89z"/>
	<path class="st135" d="M540.19,577.95c-5.34,0.42-6.82-2.4-6.71-7.29c0.21-9.41,0.06-18.83,0.06-28.25c2.22-1.9,4.44-1.9,6.66,0
		C540.19,554.26,540.19,566.1,540.19,577.95z"/>
	<path class="st136" d="M540.19,542.41c-2.22,0-4.44,0-6.66,0c-0.74,0-1.48,0-2.22-0.01c-0.74-1.48-1.47-2.95-2.21-4.43
		c3.66-2.39,7.22-0.85,10.8,0.25c0.91,0.57,1.77,1.22,2.58,1.93c-0.01,0.74-0.01,1.48-0.02,2.22
		C541.7,542.39,540.95,542.4,540.19,542.41z"/>
	<path class="st137" d="M540.19,540.18c-3.7-0.73-7.39-1.47-11.09-2.2c0.73-0.75,1.45-1.49,2.18-2.24
		C535.99,533.74,541.03,531.05,540.19,540.18z"/>
	<path class="st138" d="M540.19,540.18c-0.73-5.96-5.42-4-8.91-4.44c0-0.74,0.02-1.47,0.04-2.21c3.41-1.55,6.93-1.82,10.55-0.86
		c1.12,0.86,1.33,1.91,0.64,3.15c-0.01,1.45-0.02,2.9-0.02,4.34C541.71,540.17,540.95,540.18,540.19,540.18z"/>
	<path class="st139" d="M542.3,533.45c-3.66,0.03-7.32,0.06-10.99,0.08c0.74-0.74,1.47-1.48,2.21-2.23
		c2.95-0.74,5.91-1.48,8.86-2.22C543.56,530.56,543.56,532.02,542.3,533.45z"/>
	<path class="st96" d="M542.39,526.85c2.15-6.03,4.29-12.05,6.44-18.08c0,0,0.62,0.61,0.62,0.61c3.35,6.16,4.22,12.04-1.98,17.1
		c-0.31,0.22-0.61,0.45-0.9,0.69c-1.44,1.06-2.84,1.01-4.18-0.18L542.39,526.85z"/>
	<path class="st140" d="M547.46,526.47c0.66-5.7,1.32-11.4,1.98-17.1c2.5-0.5,3.93-2.02,4.32-4.53c0.58-0.13,1.15-0.28,1.72-0.45
		c0.43,0.39,0.87,0.77,1.31,1.16c2.59,7.07-0.6,13.68-1.63,20.47c-0.82,1.68-2.11,2.8-3.96,3.23
		C549.95,528.33,548.7,527.4,547.46,526.47z"/>
	<path class="st141" d="M555.47,504.4c0.13-12.42,0.27-24.84,0.4-37.26c1.28-0.84,2.36-0.63,3.24,0.62
		c3.26,6.7,1.32,13.86,1.89,20.8c-0.07,5.07,0.59,10.23-1.67,15.06c-0.73,1.23-1.8,1.71-3.21,1.45L555.47,504.4z"/>
	<path class="st142" d="M564.61,455.79c0,2.19,0.01,4.38,0.01,6.57c-2.86,2.88-5.88,2.34-8.96,0.41c-0.7-0.13-1.38-0.31-2.05-0.52
		c-1.9-2.14-1.99-4.3-0.05-6.47C557.24,455.79,560.93,455.79,564.61,455.79z"/>
	<path class="st143" d="M555.66,462.77c2.99-0.14,5.97-0.27,8.96-0.41c1.58,0.16,3.16,0.33,4.74,0.49c0.04,1.22,0.08,2.45,0.13,3.67
		c-0.39,0.47-0.79,0.95-1.18,1.42c-3.65,1.98-7.1,1.62-10.34-0.93c-0.7-0.03-1.39,0.02-2.08,0.13
		C555.81,465.69,555.74,464.23,555.66,462.77z"/>
	<path class="st144" d="M553.56,455.78c0.02,2.16,0.03,4.31,0.05,6.47c-1.37-0.01-2.73-0.02-4.1-0.03c-0.25-2.14-0.5-4.27-0.76-6.41
		c0.14-0.75,0.27-1.51,0.41-2.26c1.45-1.31,2.88-1.14,4.3,0.05C553.47,454.33,553.5,455.06,553.56,455.78z"/>
	<path class="st145" d="M542.38,526.98c1.4,0.06,2.79,0.11,4.19,0.17c0.16,3.6,1.42,7.71-4.06,8.66c-0.06-0.79-0.13-1.58-0.2-2.37
		c0.03-1.45,0.05-2.91,0.08-4.36C542.4,528.39,542.39,527.69,542.38,526.98z"/>
	<path class="st146" d="M544.53,453.6c0.71,0.76,1.42,1.52,2.12,2.28c-2.15,1.45-4.3,2.9-6.45,4.34c0.01-2.22,0.02-4.45,0.03-6.67
		C541.67,453.57,543.1,453.59,544.53,453.6z"/>
	<path class="st147" d="M611.18,528.93c4.81,9.76,1.39,20.15,2.21,30.22c0.5,6.22,0.07,12.52,0.05,18.79
		c-2.02,1.45-3.84,1.22-5.49-0.62c-3.7-14.94-1.98-30.01-1.13-45.07c0.5-1.34,1.34-2.43,2.5-3.27
		C609.94,529.02,610.56,529,611.18,528.93z"/>
	<path class="st148" d="M600.19,511.25c1.39,0.07,2.78,0.15,4.17,0.22c0.73,1.55,1.46,3.1,2.19,4.66c0.11,3.57,0.22,7.13,0.34,10.69
		c-2.47,2.6-5.34,2.5-8.38,1.24c-1.04-0.67-1.8-1.58-2.28-2.71c-1.03-2.89-0.93-5.8-0.12-8.72
		C596.87,514.38,598.01,512.41,600.19,511.25z"/>
	<path class="st149" d="M597.98,526.8c2.97,0.01,5.95,0.02,8.92,0.03c0.81,0.72,1.61,1.44,2.42,2.15c-0.17,0.73-0.33,1.46-0.5,2.19
		c-0.82,0.86-1.78,1.53-2.88,2c-3.02,0.77-5.89,0.62-8.41-1.47C596.63,529.97,596.68,528.32,597.98,526.8z"/>
	<path class="st150" d="M586.87,831.09c0.38-3.44-1.74-8.21,4.55-8.48c-0.04,2.82-0.08,5.63-0.11,8.45
		C589.83,831.07,588.35,831.08,586.87,831.09z"/>
	<path class="st151" d="M593.58,822.49c2.46-0.22,4.98-0.62,6.62,1.96C597.52,825.39,594.24,828.36,593.58,822.49z"/>
	<path class="st152" d="M546.73,824.49c-0.81,3.5-4.8,3.83-6.45,6.49c-4.96,0.59-7.36-1.35-6.48-6.54
		C538.12,823.11,542.43,822.06,546.73,824.49z"/>
	<path class="st153" d="M546.73,824.49c-4.31-0.02-8.62-0.03-12.93-0.05c1.78-3.73,6.87-0.95,8.77-4.46
		C545.43,820.13,546.82,821.63,546.73,824.49z"/>
	<path class="st154" d="M589.07,817.61c-0.66,0.16-1.32,0.26-1.99,0.3c-10.02,1.69-11.7,0.56-12.1-9.45
		c-0.6-15.13,3.45-30.07,2.17-45.26c0.14-2.8,0.51-5.54,2.45-7.76c6.87-2.24,7.17,2.93,7.79,7.22c0.89,6.15-0.5,12.49,1.43,18.58
		c0.82,3.1,0.92,6.28,0.99,9.45c0.13,6.06-0.42,12.11,2.51,17.93C594.1,812.15,593.12,815.68,589.07,817.61z"/>
	<path class="st155" d="M580.1,762.15c1.69,15.49-2.03,30.72-2.29,46.14c-0.12,7.01,1.82,10.59,9.27,9.63
		c-2.81,6.16-7.24,2.55-11.19,1.86c-5.21-5.71-2.5-12.77-3.26-19.23c0.19-6.45-0.34-12.94,0.73-19.36
		c2.55-5.8,0.39-12.51,3.49-18.21C577.7,761.83,578.79,761.56,580.1,762.15z"/>
	<path class="st156" d="M604.46,819.94c-3.61,0.09-7.21,0.17-10.81,0.26c-0.06-0.82-0.13-1.64-0.2-2.46
		c-1.56-4.9-1.46-10.13-2.94-15.05c0.07-3.93-0.29-7.94,2.17-11.41c1.66-1.44,3.48-1.56,5.42-0.68c2.4,2.42,2.61,5.54,2.79,8.67
		c0.24,3.89-0.16,7.81,0.09,11.7C600.04,814.76,605.71,816.02,604.46,819.94z"/>
	<path class="st157" d="M593.42,802.35c0.01,5.13,0.02,10.26,0.03,15.39c-1.46-0.04-2.92-0.08-4.38-0.13
		c3.69-4.76,0.08-8.36-1.38-12.7c-1.42-4.22-0.63-9.19-0.8-13.83c1.51-1.26,3.1-1.23,4.74-0.27
		C593.48,794.46,591,798.79,593.42,802.35z"/>
	<path class="st158" d="M575.6,800.01c0.1,6.59,0.19,13.17,0.29,19.76c-0.11,0.9-0.21,1.8-0.32,2.71c-1.48-0.04-2.96-0.08-4.44-0.12
		c0,0-0.24,0.09-0.24,0.09c-1.45-1.79-5.59-1.57-4.17-5.54c3.04-5.36,0.15-12.16,4.19-17.28
		C572.56,798.76,574.13,798.72,575.6,800.01z"/>
	<path class="st159" d="M549.17,817.69c-0.08-92.76-0.16-185.53-0.2-278.29c0-2.84-0.82-6.02,2.15-8.13
		c1.57-0.67,2.82-0.28,3.74,1.16c2.46,4.07,1.78,8.59,1.78,12.98c0.03,85,0.04,170.01-0.02,255.01c0,5.49,0.86,11.13-1.72,16.37
		C553.28,818.97,551.36,819.15,549.17,817.69z"/>
	<path class="st160" d="M553.69,531.46c-0.86-0.07-1.71-0.13-2.57-0.2c0.11-0.67,0.13-1.33,0.08-2c0.76-0.78,1.53-1.55,2.29-2.33
		c3.94-3.56,8.54-3,13.19-2.11c1.13,0.36,2.1,0.97,2.92,1.82c0.79,1.69,0.67,3.32-0.39,4.87c-1.27,1.22-2.83,1.83-4.53,2.13
		c-2.77,0.37-5.52,0.38-8.24-0.41C555.45,532.76,554.54,532.16,553.69,531.46z"/>
	<path class="st161" d="M549.17,817.69c1.49-0.01,2.97-0.02,4.46-0.03c0.88-0.62,1.71-0.55,2.52,0.14c0.43,1.57-0.13,2.82-1.24,3.9
		c-0.44,0.2-0.89,0.4-1.33,0.59c-1.51-0.04-3.03-0.09-4.54-0.13C549.08,820.66,549.12,819.17,549.17,817.69z"/>
	<path class="st162" d="M569,822.74c-3.14,2.84-6.8,4.22-11.05,3.95c-1.06,1.14-0.47,3.19-2.18,3.97c-0.59,0.13-1.19,0.17-1.79,0.13
		c-0.13-2.84-0.27-5.67-0.4-8.51c0,0-0.08-0.19-0.08-0.19C558.8,819.12,564.02,818.11,569,822.74z"/>
	<path class="st163" d="M555.77,830.66c0.05-1.7,0.52-3.16,2.18-3.97c2.66,4.1,7.99,0.53,10.94,3.81
		C564.51,830.59,560.2,835.27,555.77,830.66z"/>
	<path class="st164" d="M569,822.74c-5.17-0.22-10.34-0.43-15.51-0.65c0.69-1.35,1.37-2.7,2.06-4.04c0.55-0.88,1.31-1.5,2.25-1.91
		c2.49-0.77,4.98-0.76,7.46,0.06c0.95,0.43,1.63,1.14,2.07,2.08c1.19,1.39,2.37,2.79,3.56,4.18
		C570.27,822.6,569.64,822.69,569,822.74z"/>
	<path class="st165" d="M553.62,418.04c-0.04-5.93-0.08-11.86-0.12-17.79c0.57-3.78-0.97-7.97,2.16-11.26
		c0.03,9.68,0.05,19.36,0.08,29.05C555.03,419.07,554.33,419.02,553.62,418.04z"/>
	<path class="st166" d="M562.4,418.04c0,8.88,0.01,17.77,0.01,26.65c-0.6,2.55,1.38,5.93-4.28,8.44
		C560.05,440.73,552.97,428.81,562.4,418.04z"/>
	<path class="st107" d="M562.4,373.62c0.74,0,1.48,0,2.22,0c-1.37,14.77,2.82,29.83-2.21,44.42
		C562.4,403.23,562.4,388.43,562.4,373.62z"/>
	<path class="st167" d="M549.24,449.22c-0.03-4.47-0.05-8.94-0.08-13.42c1.47-1.32,3.04-1.3,4.68-0.36
		c0.82,1.64,0.97,3.25-0.25,4.79c-0.01,1.49-0.02,2.98-0.03,4.46C555.29,449.23,553.88,450.77,549.24,449.22z"/>
	<path class="st142" d="M553.6,440.23c-0.03-1.47-0.06-2.94-0.09-4.42c-2.36-2.97-2.35-5.94-0.03-8.92
		c0.05-2.95,0.09-5.91,0.14-8.86c0.71,0,1.41,0,2.12-0.01C554.77,425.41,557.96,433.19,553.6,440.23z"/>
	<path class="st142" d="M549.24,449.22c2.8-0.21,4.2-1.75,4.33-4.52c3.06,3,3.09,5.97-0.1,8.9c-1.43-0.01-2.87-0.03-4.3-0.05
		C549.19,452.11,549.22,450.67,549.24,449.22z"/>
	<path class="st143" d="M569.49,466.52c4.39,12.16,1.16,24.76,2.06,37.12c0.35,4.78,0.15,9.61,0.19,14.41
		c1.79,3.67,3.06,7.21-2.32,9.03l-0.85-0.52c-4.59-7-2.39-14.81-2.67-22.32c0.1-8.64,0.04-17.28,0.06-25.93
		c0.01-3.97-0.17-7.98,2.86-11.18L569.49,466.52z"/>
	<path class="st168" d="M580.43,447.02c6.06,6.18,5.96,16.42-0.24,24.3c-0.43,0.23-0.85,0.45-1.28,0.68
		c-1.04-0.13-1.69-0.7-1.95-1.71c-0.04-1.9-0.38-3.84,0.64-5.63c0.26-2.16,0.53-4.32,0.79-6.48
		C580.35,454.69,577.44,450.32,580.43,447.02z"/>
	<path class="st169" d="M577.6,464.66c0.13,2.21,0.27,4.42,0.4,6.63c4.26,5.14,2.64,11.32,3.05,17.14
		c-0.18,6.89,0.32,13.79-0.09,20.69c-0.09,2.43-0.28,4.85-1.24,7.12c-0.52,1.13-1.37,1.9-2.53,2.33c-0.55-0.22-1.1-0.44-1.65-0.67
		c0.09-14.26,0.11-28.52,0.3-42.77C575.88,471.59,574.7,467.75,577.6,464.66z"/>
	<path class="st170" d="M569.42,527.08c3.19-2.39,1.21-6.11,2.32-9.03c1.27-0.05,2.53-0.1,3.79-0.16c0,0,0.41,0.19,0.41,0.19
		c3.09,3.94,3.05,8.15,1.09,12.53c-1.73,2.42-4.09,2.71-6.74,1.94c-0.51-0.37-1.02-0.74-1.53-1.11
		C568.98,529.99,569.2,528.54,569.42,527.08z"/>
	<path class="st70" d="M580.43,447.02c-0.66,3.72,0.96,7.87-2.04,11.16c0.44-8.25-2.15-16.69,1.62-24.72
		C580.15,437.98,580.29,442.5,580.43,447.02z"/>
	<path class="st171" d="M613.54,773.38c-0.04,5.92-0.08,11.83-0.12,17.75c-1.41,0.02-2.81,0.04-4.22,0.07
		c-3.83-3.4-3.23-8.03-3.24-12.37c-0.09-51.18-0.08-102.37-0.02-153.55c0-3.67-0.14-7.4,1.73-10.79c1.6-2.18,3.55-2.37,5.76-0.98
		c0,0,0.11-0.05,0.11-0.05C613.54,666.77,613.54,720.07,613.54,773.38z"/>
	<path class="st172" d="M613.42,613.51c-1.42-0.02-2.84-0.04-4.25-0.06c-5.1-11.84-5.2-23.68,0.06-35.5c1.4,0,2.8-0.01,4.2-0.01
		C613.43,589.8,613.43,601.65,613.42,613.51z"/>
	<path class="st173" d="M609.23,577.95c-0.02,11.83-0.04,23.67-0.06,35.5c0.01,59.25,0.02,118.5,0.03,177.74
		c-0.16,9.62-0.32,19.23-0.48,28.85c-0.67-0.02-1.33-0.04-1.99-0.07c-1.37-2.3-2.53-4.69-2.77-7.42c-0.2-2.06-0.23-4.12-0.25-6.19
		c-0.05-52.4,0-104.79-0.06-157.18c0.05-35.2,0.08-70.41-0.04-105.61c-0.34-4.45,0.11-8.68,3.22-12.22
		c0.67-0.05,1.33-0.11,1.99-0.19C608.96,546.76,609.1,562.36,609.23,577.95z"/>
	<path class="st174" d="M591.06,382.51c0.01,4.48,0.02,8.95,0.03,13.43c-1.43,1.21-2.78,1.2-4.05-0.24
		c-0.01-4.43-0.01-8.86-0.02-13.29C588.37,382.43,589.72,382.47,591.06,382.51z"/>
	<path class="st175" d="M587.04,395.69c1.35,0.08,2.7,0.16,4.06,0.24c0.1,13.25,0.2,26.51,0.3,39.76c1.66,9.62,1.3,19.25,0.22,28.89
		c-0.09,2.26-0.19,4.52-0.28,6.77c-0.04,2.91-0.09,5.83-0.14,8.74c-1.26,1.42-2.74,1.44-4.35,0.69c-0.54-0.6-0.76-1.22-0.65-1.87
		c0.11-0.67,0.25-1,0.41-1c0.01-25.88,0.01-51.77,0.01-77.65C586.77,398.74,586.9,397.21,587.04,395.69z"/>
	<path class="st176" d="M586.62,477.91c0.11,0.82,0.23,1.64,0.34,2.46c3.55,5.1,1.63,10.83,1.9,16.3
		c-1.07,4.14-1.12,8.53-3.01,12.48c-2.09,2.61-4.38,4.52-7.84,2.18c0.08-7.43,0.15-14.86,0.23-22.29c0,0,0.8-0.72,0.79-0.73
		c0.73-0.02,1.4,0.2,1.98,0.58c1.73-0.36,0.8-1.72,0.98-2.68c0.08-3.01,0.03-6.02,2.63-8.17
		C585.29,478.03,585.96,477.98,586.62,477.91z"/>
	<path class="st168" d="M584.63,478.05c-0.03,3.65-0.06,7.31-0.08,10.96c-1.42,1.41-2.87,1.41-4.34,0.07l-0.01-0.01
		c-1.81-5.9-1.73-11.8-0.05-17.7c0,0,0.05-0.04,0.05-0.04C583.16,472.59,584.58,474.86,584.63,478.05z"/>
	<path class="st174" d="M591.61,464.58c-0.07-9.63-0.15-19.26-0.22-28.89c4,8.65,0.99,17.86,2.11,26.73
		C592.87,463.15,592.24,463.87,591.61,464.58z"/>
	<path class="st177" d="M553.48,426.9c0.01,2.97,0.02,5.95,0.03,8.92c-1.45,0-2.9-0.01-4.34-0.01c0-2.95,0-5.9,0.01-8.84
		C550.61,426.94,552.04,426.92,553.48,426.9z"/>
	<path class="st130" d="M586.73,497.99c0.08-5.87,0.15-11.75,0.23-17.62c1.42-0.09,2.83-0.18,4.24-0.27c0.03,8.2,0.07,16.4,0.1,24.6
		c0.79,0.88,1.3,1.9,1.52,3.07c0.02,1.87-0.52,3.45-2.27,4.4c-1.93,0.39-3.49-0.17-4.6-1.83
		C585.98,506.21,584.86,502.01,586.73,497.99z"/>
	<path class="st178" d="M591.3,506.88c-0.02-0.73-0.02-1.45,0-2.18c3.18,0.25,6.07-0.67,8.78-2.26c0,2.21-0.01,4.42-0.01,6.63
		C596.54,510.78,593.83,509.17,591.3,506.88z"/>
	<path class="st179" d="M591.3,506.88c3.19-0.34,6.04,0.67,8.77,2.19c0.09,0.72,0.13,1.45,0.13,2.18c-0.1,1.83-0.45,3.53-2.26,4.5
		c-1.92,0.21-3.76-0.02-5.47-0.97c-1.15-0.9-2.15-1.85-1.18-3.47C591.29,509.84,591.3,508.36,591.3,506.88z"/>
	<path class="st180" d="M606.78,813.33c-0.02,2.22-0.03,4.43-0.05,6.65c-0.76-0.01-1.51-0.02-2.27-0.04
		c-1.44-2.89-6.98-1.72-6.46-6.54c0.8-0.77,1.71-1.35,2.73-1.78C603.07,811.05,605.05,811.73,606.78,813.33z"/>
	<path class="st181" d="M569.03,504.69c-0.15,7.29-0.3,14.59-0.46,21.88c-5.03,0.12-10.05,0.23-15.08,0.35
		c-0.9-7.5,1.86-14.56,2.64-21.85c0.6-0.27,1.21-0.45,1.86-0.56c1.87-1.54,3.99-2.34,6.44-2.13
		C566.24,502.6,567.71,503.49,569.03,504.69z"/>
	<path class="st140" d="M569.03,504.69c-1.46-0.07-2.92-0.15-4.37-0.22c-6.54-7.7,0.02-15.76-0.92-23.64
		c-1.99,2.6,3.11,10.54-5.77,8.3c0-7.37,0-14.74,0-22.11c3.62,0.04,7.24,0.08,10.86,0.13C568.89,479.65,568.96,492.17,569.03,504.69
		z"/>
	<path class="st182" d="M557.97,489.12c7.47-0.69,2.18-8.36,6.69-11.67c0,9.44,0,18.23,0,27.02c-2.22,0.01-4.44,0.03-6.66,0.05
		C557.98,499.38,557.97,494.25,557.97,489.12z"/>
	<path class="st183" d="M597.98,526.8c0.04,1.55,0.09,3.09,0.13,4.64c2.63,3.28,2.79,6.78,0.92,10.45
		c-1.28,1.55-2.93,1.91-4.81,1.48c-2.3-1.18-2.86-3.41-3.4-5.64c0.01-4.99-3.13-10.62,2.8-14.48c1.68-0.23,3.13,0.21,4.26,1.52
		C597.87,525.44,597.9,526.12,597.98,526.8z"/>
	<path class="st178" d="M597.88,524.76c-1.47-0.04-2.93-0.08-4.4-0.12c-0.86-0.82-1.49-1.79-1.92-2.9
		c-0.76-3.04-0.47-5.84,1.85-8.18c1.85,0.02,3.53,0.39,4.52,2.19C597.92,518.76,597.9,521.76,597.88,524.76z"/>
	<path class="st184" d="M597.9,542.39c0.07-3.65,0.14-7.3,0.21-10.95c2.91-0.03,5.81-0.05,8.72-0.08
		c-0.02,3.68-0.04,7.36-0.06,11.05c-2.46,11.53-0.32,23.23-1.25,34.82c-2.29,3.88-1.85,8.35-2.78,12.51
		c-0.65,2.9-0.45,7.99-6.18,4.76C594.48,577.06,592.29,559.62,597.9,542.39z"/>
	<path class="st185" d="M586.81,782.27c-4.41-5.59-1.34-12.09-2.16-18.12c-0.47-3.47,1-7.78-4.49-8.54
		c-5.8-8.32-2.12-17.74-3.01-26.62c-0.4-3.98-0.18-8.04,0.14-12.05c0.2-2.1,0.77-4.07,2.16-5.72c7.31-2.97,7.54,3.33,9.57,7.29
		c1.39,6.72,0.7,13.54,0.95,20.33c-0.03,10.33,0.09,20.66-0.06,30.98C589.83,774.16,590.52,778.79,586.81,782.27z"/>
	<path class="st186" d="M586.81,782.27c0-14.8,0-29.6,0-44.4c2.11-1.45,4-1.24,5.65,0.76c2.45,17.57,4.49,35.13-1.19,52.52
		c-1.46-0.02-2.93-0.04-4.39-0.05C586.86,788.15,586.84,785.21,586.81,782.27z"/>
	<path class="st187" d="M580.11,715.62c0.02,13.33,0.03,26.67,0.05,40c-0.02,2.18-0.04,4.35-0.06,6.53
		c-0.74,0.04-1.48,0.07-2.23,0.11c-5.59-15-3.34-30.24-1.33-45.47C577.4,715.39,578.59,715,580.11,715.62z"/>
	<path class="st188" d="M575.6,800.01c-1.41,0.02-2.81,0.04-4.22,0.07c-5.99-8.5-2-18.19-3.25-27.26c0.06-53.5-0.04-107,0.07-160.5
		c0.01-5.45-1.02-11.13,2.21-16.19c1.95-1.71,3.97-1.71,6.04-0.24c3.08,4.25,2.36,9.2,2.38,13.95c0.09,29.97,1.57,60.04-0.41,89.88
		c-1.79,26.94-0.14,53.89-2.45,80.74C575.84,786.98,575.72,793.5,575.6,800.01z"/>
	<path class="st189" d="M575.96,780.47c-0.11-61.59-0.21-123.18-0.32-184.78c-3.5-3.92-3.32-8.82-2.94-13.45
		c1.06-13.21-3.01-26.77,2.62-39.67c7.45,0.66,5.43,6.69,5.56,10.78c0.47,14.17,0.14,28.35,0.23,42.53
		c-0.08,33.47-0.06,66.95,0.02,100.42c0.02,6.68-0.53,13.16-3.17,19.36c-0.03,15.53-0.06,31.07-0.09,46.6
		C577.07,768.31,579.18,774.67,575.96,780.47z"/>
	<path class="st190" d="M597.94,800.03c-0.01-2.96-0.01-5.92-0.02-8.87c-5.1-21.6-0.65-43.36-0.93-65.03
		c-0.26-19.61,0.02-39.23-0.02-58.85c-0.15-6.25-0.17-12.51,0-18.76c0.24-8.8-0.43-17.61,0.13-26.38c0.28-4.39-0.07-10.4,7.61-9.03
		c2.16,12,0.39,24.11,0.97,36.15c-0.01,48.71,0.03,97.41-0.02,146.12C604.95,800.03,602.01,800.95,597.94,800.03z"/>
	<path class="st191" d="M600.15,666.78c0,24.99,0.14,49.97-0.05,74.96c-0.1,13.4-3.97,26.75-0.1,40.25
		c0.82,2.88,1.08,6.68-2.07,9.16c-1.43-0.01-2.85-0.03-4.28-0.04c-2.62-6.79-1.41-13.9-1.06-20.75c0.83-16.56-2.19-32.99-1.05-49.52
		c5.35-8.47,2.77-17.92,3.25-26.98c0.31-5.88-0.25-11.81,0.22-17.68C595.3,672.46,594.24,667.59,600.15,666.78z"/>
	<path class="st192" d="M593.5,720.08c0.05,23.68,0.09,47.36,0.14,71.03c-0.07,3.75-0.15,7.49-0.22,11.24
		c-3.35-3.23-1.49-7.46-2.14-11.21c-0.04-17.73-0.07-35.45-0.11-53.18c-3.79-10.27-2.39-21.07-2.87-31.61
		c-0.65-14.36-0.16-28.77-0.19-43.16c0.08-10.3,0.05-20.6,0.03-30.9c0.47-11.16-0.71-22.37,0.78-33.51c0.4-1.29,1.09-2.41,2.05-3.36
		c1.4-0.47,2.58-0.14,3.53,0.98c2.28,3.6,1.81,7.69,2.1,11.66c0.33,8.11,0.13,16.22,0.03,24.34c0.56,25.73-1.66,51.42-0.98,77.15
		C595.76,713.17,596.12,716.96,593.5,720.08z"/>
	<path class="st191" d="M597.94,800.03c2.22-0.74,4.43-1.47,6.65-2.21c2.04,3.07,0.72,6.5,1.03,9.75c-0.48,3.19-3.79,3.72-5.47,5.78
		c-0.72,0-1.44,0.02-2.16,0.04C597.98,808.94,597.96,804.49,597.94,800.03z"/>
	<path class="st193" d="M571.07,773.53c0.1,8.85,0.21,17.7,0.31,26.55c-2.06,5.9,2.83,13.36-4.05,18.19
		c-0.3-0.27-0.59-0.54-0.89-0.82c-1.34-1.58-1.65-3.45-1.55-5.44c3.13-12.4-1.25-25.38,2.93-37.71
		C568.66,773.06,569.75,772.8,571.07,773.53z"/>
	<path class="st194" d="M557.96,817.65c-0.8,0.13-1.61,0.26-2.41,0.4c-0.65-0.09-1.29-0.22-1.93-0.39
		c0.02-95.4,0.04-190.8,0.06-286.2c0.71-0.05,1.43-0.06,2.14-0.03c4.07,1.75,9.75,0.91,11.15,6.95
		c1.61,40.47,0.56,80.95,0.54,121.43c0,2.22-0.6,4.37-1.93,6.24c-1.12,1.24-2.38,1.4-3.79,0.51c-3.03-3.79-2.7-8.31-2.7-12.72
		c0.03-24.76-0.17-49.51,0.08-74.26c0.14-5.64,0.11-11.3,0.15-16.94c0-2.92,0.21-5.86,0.18-8.81c-0.02-1.48,0.24,0.34-0.07-1.09
		c-0.24-1.13-0.64-1.15-0.62-0.02c0.3,49.42,0.19,98.68,0.16,147.93c0.72,6.57,2.38,13.04,2.06,19.71
		c0.31,11.83-0.16,23.61-2.14,35.29c-0.12,16.51-0.24,33.03,0.08,49.52c0.39,2.19,0.43,4.41,0.17,6.62
		C558.93,813.78,559.18,815.87,557.96,817.65z"/>
	<path class="st195" d="M564.61,666.79c0-43.69-0.01-87.38-0.01-131.08c-1.27-1.4-1.27-2.81-0.03-4.23c1.4-0.02,2.8-0.03,4.19-0.05
		c0,0,0.41-0.19,0.41-0.19c2.63,1.71,3.82,4.07,3.22,7.23c-2.81,74.23-2.25,148.49-2.29,222.75c0,4.01,0.9,8.14-0.9,12.03
		c-1.67,13.36,2.61,27.13-2.8,40.24c-1.44,0.4-2.52-0.07-3.23-1.38c-2.78-6.92-1.4-14.17-1.67-21.29
		c-0.16-5.93-0.21-11.86-0.03-17.8c0.11-6.16,0.04-12.31,0.01-18.47c0.3-24.71-0.67-49.41,0.03-74.12
		C561.64,675.7,560.98,670.75,564.61,666.79z"/>
	<path class="st196" d="M564.56,531.49c0.01,1.41,0.02,2.82,0.03,4.23c-2.92-1.43-5.84-2.86-8.76-4.29
		C558.74,531.45,561.65,531.47,564.56,531.49z"/>
	<path class="st197" d="M564.62,813.35c0.6,0.01,1.19,0.06,1.78,0.15c0.01,1.32,0.03,2.64,0.04,3.95c-2.83,0.06-5.65,0.13-8.48,0.2
		c-0.73-1.42-1.46-2.84-2.19-4.27C558.72,811.3,561.67,810.93,564.62,813.35z"/>
	<path class="st198" d="M580.14,471.37c0.02,5.9,0.04,11.8,0.05,17.7c0,0-0.98,0.01-0.98,0.01s-0.98-0.03-0.98-0.03
		c-0.08-5.92-0.16-11.84-0.24-17.76C578.71,471.32,579.43,471.35,580.14,471.37z"/>
	<path class="st199" d="M593.54,522.36c-0.02,0.76-0.03,1.52-0.05,2.29c-1.58,3.69-1.01,7.39-0.06,11.09
		c0.63,15.5,1.37,31,0.94,46.53c-0.13,4.7,0.48,9.57-3.03,13.51l-0.07-0.07c-4.89,10.71-0.68,22.13-2.56,33.07
		c-0.33,1.19-0.98,2.17-1.94,2.94c-1.28,0.29-2.33-0.07-3.17-1.07c-3.17-5.88-0.82-13.07-4.48-18.85
		c-0.05-5.79-0.02-11.57-0.02-17.36c0-15.18,1.15-30.47-0.4-45.48c-1.08-10.47-3.32-20.67-0.83-31.15c0.05-2.16,0.09-4.33,0.14-6.49
		c2.19-0.75,4.38-1.49,6.57-2.24c0.69,0.62,1.15,1.39,1.41,2.28c1.14,2.96,2.76,5.58,5.25,7.62
		C592.09,520.06,592.5,521.42,593.54,522.36z"/>
	<path class="st200" d="M577.87,517.83c1.65,26,3.18,52,2.17,78.08c-0.8,0.85-1.46,0.71-2.01-0.27
		c-1.14-17.89,1.92-35.93-1.95-53.71c-1.57-0.93-2.2-2.43-2.48-4.14c-0.11-2.28,0.25-4.44,1.75-6.27c0.2-4.48,0.39-8.96,0.59-13.43
		C576.58,517.99,577.22,517.9,577.87,517.83z"/>
	<path class="st201" d="M575.35,531.52c0.15,2.15,0.29,4.29,0.44,6.44c-1.38,1.31-2.93,1.38-4.6,0.62c-0.9-0.97-0.91-1.94-0.03-2.93
		c-0.66-1.47-1.33-2.93-1.99-4.4C571.23,531.34,573.29,531.43,575.35,531.52z"/>
	<path class="st202" d="M604.58,808.91c0-3.7,0.01-7.39,0.01-11.09c0.01-49.6,0.01-99.21,0.02-148.81c0.73-1,1.45-1,2.18,0
		c-0.01,53.31-0.02,106.62-0.02,159.93C606.02,809.67,605.3,809.69,604.58,808.91z"/>
	<path class="st203" d="M606.78,649.02c-0.73,0-1.45,0-2.18,0c0-11.84-0.01-23.69-0.01-35.53c-6.07-11.84-2.51-23.68-0.02-35.53
		c1.21-11.82-2.42-23.94,2.19-35.55C606.77,577.94,606.78,613.48,606.78,649.02z"/>
	<path class="st204" d="M604.58,808.91c0.73,0.01,1.46,0.02,2.18,0.03c0.01,1.46,0.01,2.93,0.02,4.39
		c-2.21,0.01-4.42,0.02-6.62,0.03C600.23,810.48,601.7,808.99,604.58,808.91z"/>
	<path class="st198" d="M580.21,489.08c1.45-0.02,2.89-0.05,4.34-0.07c-0.46,2.09,1.19,5.76-2.63,5.44
		C579.63,494.27,580.36,491.07,580.21,489.08z"/>
	<path class="st169" d="M584.68,511.2c0.03-0.7,0-1.4-0.1-2.1c0.52-3.74-1.31-7.93,2.15-11.1c0.08,4.42,0.17,8.84,0.26,13.26
		c-0.39,0.29-0.78,0.57-1.17,0.86C585.44,511.81,585.06,511.5,584.68,511.2z"/>
	<path class="st205" d="M593.54,522.36c-0.76-0.72-1.53-1.44-2.29-2.16c-1.75-2.82-7.35-3.68-4.51-8.84c0,0,0.25-0.11,0.25-0.11
		c1.44,0.02,2.87,0.04,4.3,0.06c0.71,0.75,1.42,1.5,2.13,2.25C593.45,516.5,593.49,519.43,593.54,522.36z"/>
	<path class="st206" d="M593.63,606.91c-0.09-3.79-0.18-7.59-0.27-11.38c-1.37-17.7-1.97-35.39,0.31-53.07
		c1.41-0.03,2.82-0.05,4.23-0.08c0.01,17.78,0.02,35.55,0.03,53.33C600.78,601.09,603.39,606.38,593.63,606.91z"/>
	<path class="st207" d="M593.67,542.46c-0.1,17.69-0.21,35.38-0.31,53.07c-0.67,0.12-1.35,0.2-2.03,0.25
		c-0.02-16.92-0.09-33.83-0.03-50.75c0.01-3.2-0.87-6.72,2.12-9.29C593.51,537.98,593.59,540.22,593.67,542.46z"/>
	<path class="st208" d="M593.63,606.91c6.83-1.66,3.39-7.26,4.3-11.2c3.45-2.86,1.95-6.81,2.19-10.34c0.22-3.32-0.32-6.92,4.46-7.42
		c0.01,11.84,0.01,23.69,0.02,35.53c-5.34,0.74-4.39,4.89-4.41,8.37c-0.07,9.06-0.03,18.11-0.03,27.17
		c-4.6,0.21-4.01-3.35-4.35-6.11c-0.49-3.94,0.89-8.22-2.18-11.68C593.62,623.12,593.63,615.02,593.63,606.91z"/>
	<path class="st209" d="M591.2,662.26c-0.01,25.24-0.02,50.47-0.03,75.71c-1.45-0.03-2.91-0.06-4.36-0.1c0-6.66,0-13.33,0-19.99
		c-4.66-12.65-3.13-25.8-3.15-38.83c0.45-5.34-0.81-10.93,2.17-15.93C587.4,661.45,589.14,660.88,591.2,662.26z"/>
	<path class="st209" d="M578.02,595.64c0.68,0.05,1.35,0.14,2.01,0.27c0.07,5.85,0.15,11.71,0.22,17.56
		c3.79,10.91,2.2,22.3,2.99,33.48c-0.01,2.52-0.05,5.04-0.09,7.56c0.01,1.81-0.02,3.64-0.06,5.45c0,2.39-0.02,4.79-0.02,7.19
		c0.02,3.05,0.03,6.1,0.11,9.17c0.07,1.28,0.1,2.56,0.13,3.84c-0.98,10.39,2.85,21.25-3.12,31.13c-0.04,1.45-0.07,2.89-0.11,4.34
		c-0.72,0.02-1.43,0.03-2.15,0.04C577.98,675.65,578,635.64,578.02,595.64z"/>
	<path class="st187" d="M580.22,711.28c0.01-11.14,0.01-22.29,0.02-33.43c2.19-1.76,4.37-1.76,6.55,0.03
		c0.01,13.33,0.01,26.67,0.02,40C583.92,716.37,585.11,710.79,580.22,711.28z"/>
	<path class="st210" d="M571.16,535.65c0.19,0.76,0.38,1.52,0.57,2.27c2.93,19.27,2.85,38.54,0.04,57.81
		c-0.12,54.85-0.23,109.71-0.37,164.56c-0.01,4.41-0.22,8.82-0.33,13.24c-0.63-0.09-1.25-0.17-1.88-0.26
		c0-75.71-0.02-151.43,0.04-227.14C569.24,542.58,567.94,538.66,571.16,535.65z"/>
	<path class="st211" d="M571.77,595.73c-0.02-19.27-0.03-38.54-0.05-57.81c1.36,0.01,2.71,0.02,4.06,0.03
		c0.09,1.32,0.19,2.65,0.28,3.97c-0.14,17.92-0.28,35.84-0.43,53.76C574.35,595.7,573.06,595.72,571.77,595.73z"/>
	<path class="st212" d="M593.62,631.22c4.73,0.61,4.12,4.21,4.35,7.5c0.24,3.51-1.26,7.45,2.18,10.3c0,5.92,0,11.84,0,17.77
		c-4.83,13.95-0.87,28.37-2.28,42.5c-0.39,3.93,2.4,9.38-4.37,10.8C593.54,690.46,593.58,660.84,593.62,631.22z"/>
	<path class="st213" d="M586.86,631.27c-0.01-9.06-0.07-18.12,0-27.18c0.03-3.48-0.95-7.64,4.4-8.38
		c-0.01,11.84-0.02,23.67-0.03,35.51C589.79,632.58,588.33,632.42,586.86,631.27z"/>
	<path class="st214" d="M586.86,631.27c1.46-0.02,2.92-0.04,4.37-0.05c-0.01,10.35-0.02,20.69-0.03,31.04
		c-1.44,0.04-2.89,0.08-4.33,0.12c-0.44-0.46-0.88-0.92-1.33-1.37c-1-1.7-1.4-3.56-1.55-5.5
		C584.59,647.39,581.45,638.82,586.86,631.27L586.86,631.27z"/>
	<path class="st215" d="M555.75,702.31c-0.01-49.47-0.04-98.94,0.05-148.42c0.01-3.88-1.48-8.22,2.16-11.49
		c3.78,5.09,1.61,10.98,2.21,16.49c0.83,6.33-2,13.1,2.23,19.05c0,29.61,0,59.22,0,88.84c3.32,11.25-0.92,21.91-2.68,32.75
		C559.43,701.34,557.92,702.58,555.75,702.31z"/>
	<path class="st216" d="M555.75,702.31c2.13-11.86,7.98-23.03,6.65-35.53c0.74,0,1.47,0,2.21,0.01
		c-0.01,29.61-0.02,59.23-0.03,88.84c-0.58,0.18-1.17,0.37-1.75,0.56c-1.07-0.65-1.84-1.56-2.33-2.72
		c-1.49-7.63,0.32-15.31-0.29-22.96c-0.29-3.58,0.69-7.42-2.24-10.42C559.07,713.93,555.84,708.32,555.75,702.31z"/>
	<path class="st217" d="M557.96,720.09c5.35,0.74,4.38,4.89,4.41,8.37c0.07,9.05,0.03,18.11,0.03,27.16
		c-1.07,1.28-2.48,1.67-4.09,1.54c-0.99-0.29-1.85-0.81-2.56-1.56C558.19,743.86,558.11,731.98,557.96,720.09z"/>
	<path class="st218" d="M564.62,813.35c-2.95,0.01-5.9,0.02-8.85,0.03c0.73-1.49,1.46-2.98,2.18-4.47
		c-1.96-5.82-1.1-11.72-0.58-17.62c2.37-2.2,4.78-1.96,7.23-0.15C564.61,798.55,564.62,805.95,564.62,813.35z"/>
	<path class="st219" d="M557.96,791.15c0,5.92,0,11.84,0,17.77c-4.75-9-1.47-18.65-2.1-27.97c-0.57-8.41-0.11-16.9-0.11-25.35
		c0.74,0.01,1.47,0.02,2.21,0.03C562.73,767.46,563.14,779.31,557.96,791.15z"/>
	<path class="st220" d="M557.96,560.18c0-5.92,0-11.84,0-17.77c8.9,4.07,2.54,11.95,4.44,17.77
		C560.92,561.49,559.44,561.49,557.96,560.18z"/>
	<path class="st221" d="M557.96,560.18c1.48,0,2.96,0,4.44,0c0,5.92,0,11.84,0,17.77C553.5,573.88,559.86,566,557.96,560.18z"/>
	<path class="st222" d="M557.96,791.15c0-11.84,0-23.69,0-35.53c1.48,0,2.96,0,4.44-0.01c0,0,0,0,0,0
		c2.94,5.64-0.82,12.11,2.2,17.74c0,5.93,0,11.86,0,17.79C562.39,791.15,560.17,791.15,557.96,791.15z"/>
	<path class="st223" d="M564.6,773.36c-4.41-5.46-1.22-11.86-2.2-17.74c0.73,0,1.45,0,2.17,0.01
		C564.58,761.54,564.59,767.45,564.6,773.36z"/>
	<path class="st200" d="M580.34,649.05c-0.03-11.86-0.06-23.73-0.08-35.59c8.7,4.15,2.5,11.94,4.36,17.77
		c2.11,5.65,0.85,11.46,0.8,17.21C583.91,650.29,582.22,650.42,580.34,649.05z"/>
	<path class="st224" d="M584.6,649.01c0-5.93,0.01-11.85,0.01-17.78c0.75,0.01,1.5,0.03,2.25,0.04c-0.03,8.87-0.06,17.74-0.1,26.61
		c-1.6,2.36-3.17,4.78-6.45,2.19c0.01-1.48,0.02-2.95,0.03-4.43C582.46,653.88,582.38,650.7,584.6,649.01z"/>
	<path class="st200" d="M586.73,511.37c1.5,2.95,3.01,5.89,4.51,8.84c-5.8-0.37-6.92-4.15-6.56-9.01
		C585.36,511.26,586.05,511.32,586.73,511.37z"/>
	<path class="st214" d="M586.79,677.87c-2.18-0.01-4.37-0.02-6.55-0.03c-0.01-0.73,0.01-1.47,0.04-2.2
		c3.03-2.77,1.74-6.56,2.35-9.91c0.66-2.04,1.21-4.2,4.17-3.41c0,0,0.07,0.06,0.07,0.06C586.84,667.54,586.82,672.71,586.79,677.87z
		"/>
	<path class="st225" d="M586.8,662.32c-1.75,0.99-2.14,2.64-2.19,4.46c-1.46,1.31-2.9,1.31-4.34-0.04c0.01-2.22,0.03-4.44,0.04-6.66
		c2.15-0.73,4.3-1.46,6.45-2.19C586.77,659.36,586.79,660.84,586.8,662.32z"/>
	<path class="st226" d="M580.27,666.74c1.45,0.01,2.89,0.03,4.34,0.04c-0.45,3.44,1.55,8.07-4.33,8.86
		C580.28,672.68,580.28,669.71,580.27,666.74z"/>
	<path class="st227" d="M584.6,649.01c0,3.12,0.2,6.38-4.26,6.64c0-2.2-0.01-4.4-0.01-6.59
		C581.76,649.04,583.18,649.02,584.6,649.01z"/>
</g>
</svg>
