<?xml version="1.0" encoding="utf-8"?>
<!-- Generator: Adobe Illustrator 23.0.0, SVG Export Plug-In . SVG Version: 6.00 Build 0)  -->
<svg version="1.1" id="BACKGROUND" xmlns="http://www.w3.org/2000/svg" xmlns:xlink="http://www.w3.org/1999/xlink" x="0px" y="0px"
	 viewBox="0 0 500 500" style="enable-background:new 0 0 500 500;" xml:space="preserve">
<style type="text/css">
	.st0{display:none;fill:#2F3854;}
	.st1{display:none;opacity:0.1;}
	.st2{fill:#FFFFFF;}
	.st3{fill:#D8F1FD;}
	.st4{opacity:0.1;}
	.st5{fill:#AEC9D8;}
	.st6{fill:#DD5055;}
	.st7{fill:#CA4953;}
	.st8{fill:#BA3D4E;}
</style>
<rect id="Background_14_" x="128" y="55" class="st0" width="240" height="240"/>
<polygon id="Shadow_12_" class="st1" points="368,205.06 295.43,133.45 202.04,218.18 279.85,295 368,295 "/>
<g id="Mars">
	<rect id="Background_11_" x="211" y="155" class="st0" width="240" height="240"/>
	<polygon id="Shadow_9_" class="st1" points="451,296.72 375.7,220.99 280.47,325 350.06,395 451,395 	"/>
	<g id="Mars_1_">
		<path class="st6" d="M398.84,292.62c-9.73,37.47-47.99,59.96-85.46,50.23c-37.47-9.73-59.96-47.99-50.23-85.46
			c9.73-37.47,47.99-59.96,85.46-50.23C386.09,216.89,408.58,255.15,398.84,292.62z"/>
		<g>
			<path class="st7" d="M262.28,288.86c19.93,0.67,74.04-1.23,135.69-34.6c-2.4-7.71-6.1-14.94-10.93-21.38
				c-20.02,13.78-65.81,39.34-125.84,35.75C260.55,275.51,260.95,282.31,262.28,288.86z"/>
			<path class="st7" d="M398.84,292.62c1.86-7.18,2.54-14.38,2.16-21.41c-15.82,11.86-64.33,43.3-130.15,39.79
				c3.05,5.1,6.74,9.81,11,14c20.79,0.13,64.55-3.02,115.28-26.79C397.78,296.38,398.35,294.52,398.84,292.62z"/>
			<path class="st7" d="M326.07,344.93c16.61,1.19,32.71-3.63,45.72-12.93C358.68,337.4,343.3,342.2,326.07,344.93z"/>
			<path class="st7" d="M374.14,219.73c-7.33-5.73-15.93-10.09-25.52-12.58c-33.7-8.75-68.03,8.56-81.68,39.38
				C289.92,245.75,329.32,240.79,374.14,219.73z"/>
		</g>
		<path class="st8" d="M373.49,255.88c-1.85,7.11-9.11,11.38-16.23,9.54c-7.11-1.85-11.38-9.11-9.54-16.22
			c1.85-7.11,9.11-11.38,16.23-9.54C371.07,241.51,375.34,248.77,373.49,255.88z"/>
		<g class="st4">
			<path d="M366.27,243.82c2.83,0.74,5.21,2.33,6.93,4.43c-1.4-4.09-4.75-7.43-9.25-8.6c-7.11-1.85-14.38,2.42-16.23,9.54
				c-1.11,4.28,0,8.62,2.6,11.79c-0.81-2.38-0.96-5.01-0.28-7.63C351.9,246.25,359.16,241.98,366.27,243.82z"/>
		</g>
		<path class="st8" d="M329.69,285.71c-1.26,4.85-6.21,7.76-11.06,6.5c-4.85-1.26-7.76-6.21-6.5-11.06
			c1.26-4.85,6.21-7.76,11.06-6.5C328.04,275.9,330.95,280.86,329.69,285.71z"/>
		<g class="st4">
			<path d="M324.77,277.49c1.93,0.5,3.55,1.59,4.73,3.02c-0.95-2.79-3.24-5.07-6.31-5.86c-4.85-1.26-9.8,1.65-11.06,6.5
				c-0.76,2.92,0,5.88,1.77,8.04c-0.55-1.62-0.66-3.42-0.19-5.2C314.96,279.14,319.92,276.23,324.77,277.49z"/>
		</g>
		<path class="st8" d="M360.85,224.08c-0.82,3.15-4.04,5.04-7.19,4.23c-3.15-0.82-5.05-4.04-4.23-7.19
			c0.82-3.15,4.04-5.05,7.19-4.23C359.77,217.71,361.67,220.93,360.85,224.08z"/>
		<g class="st4">
			<path d="M357.65,218.73c1.25,0.33,2.31,1.03,3.07,1.96c-0.62-1.81-2.11-3.29-4.1-3.81c-3.15-0.82-6.37,1.07-7.19,4.23
				c-0.49,1.9,0,3.82,1.15,5.23c-0.36-1.05-0.43-2.22-0.13-3.38C351.28,219.81,354.5,217.92,357.65,218.73z"/>
		</g>
		<path class="st8" d="M296.32,277.04c-1.26,4.85-6.21,7.76-11.06,6.5c-4.85-1.26-7.76-6.21-6.5-11.06
			c1.26-4.85,6.21-7.76,11.06-6.5C294.67,267.24,297.58,272.19,296.32,277.04z"/>
		<g class="st4">
			<path d="M291.4,268.82c1.93,0.5,3.55,1.59,4.73,3.02c-0.95-2.79-3.24-5.06-6.31-5.86c-4.85-1.26-9.8,1.65-11.06,6.5
				c-0.76,2.92,0,5.88,1.77,8.04c-0.55-1.62-0.66-3.42-0.19-5.2C281.6,270.47,286.55,267.56,291.4,268.82z"/>
		</g>
		<path class="st8" d="M327.87,328.81c-1.26,4.85-6.21,7.76-11.06,6.5c-4.85-1.26-7.76-6.21-6.5-11.06
			c1.26-4.85,6.21-7.76,11.06-6.5C326.22,319,329.13,323.96,327.87,328.81z"/>
		<g class="st4">
			<path d="M322.95,320.58c1.93,0.5,3.55,1.59,4.73,3.02c-0.95-2.79-3.24-5.07-6.31-5.86c-4.85-1.26-9.8,1.65-11.06,6.5
				c-0.76,2.92,0,5.88,1.77,8.04c-0.55-1.62-0.66-3.42-0.19-5.2C313.15,322.23,318.1,319.32,322.95,320.58z"/>
		</g>
		<path class="st8" d="M361.45,323.12c-1.26,4.85-6.21,7.76-11.06,6.5c-4.85-1.26-7.76-6.21-6.5-11.06
			c1.26-4.85,6.21-7.76,11.06-6.5C359.8,313.31,362.71,318.27,361.45,323.12z"/>
		<g class="st4">
			<path d="M356.53,314.89c1.93,0.5,3.55,1.59,4.73,3.02c-0.95-2.79-3.24-5.07-6.31-5.86c-4.85-1.26-9.8,1.65-11.06,6.5
				c-0.76,2.92,0,5.88,1.77,8.04c-0.55-1.62-0.66-3.42-0.19-5.2C346.73,316.54,351.68,313.63,356.53,314.89z"/>
		</g>
		<path class="st8" d="M384.23,289.83c-0.72,2.78-3.56,4.44-6.33,3.72c-2.78-0.72-4.44-3.56-3.72-6.33
			c0.72-2.78,3.56-4.44,6.33-3.72C383.28,284.22,384.95,287.05,384.23,289.83z"/>
		<g class="st4">
			<path d="M381.41,285.12c1.11,0.29,2.03,0.91,2.71,1.73c-0.54-1.6-1.86-2.9-3.61-3.35c-2.78-0.72-5.61,0.94-6.33,3.72
				c-0.43,1.67,0,3.36,1.02,4.6c-0.32-0.93-0.38-1.96-0.11-2.98C375.8,286.07,378.63,284.4,381.41,285.12z"/>
		</g>
		<path class="st8" d="M319.37,229.63c-0.72,2.78-3.56,4.44-6.33,3.72c-2.78-0.72-4.44-3.56-3.72-6.33
			c0.72-2.78,3.56-4.44,6.33-3.72C318.42,224.01,320.09,226.85,319.37,229.63z"/>
		<g class="st4">
			<path d="M316.55,224.92c1.1,0.29,2.03,0.91,2.71,1.73c-0.54-1.6-1.86-2.9-3.61-3.35c-2.78-0.72-5.61,0.94-6.33,3.72
				c-0.43,1.67,0,3.36,1.02,4.6c-0.32-0.93-0.38-1.96-0.11-2.98C310.94,225.86,313.78,224.2,316.55,224.92z"/>
		</g>
		<path class="st8" d="M285.84,236.19c-0.38,1.46-1.87,2.33-3.33,1.96c-1.46-0.38-2.33-1.87-1.95-3.33
			c0.38-1.46,1.87-2.33,3.33-1.95C285.34,233.24,286.22,234.73,285.84,236.19z"/>
		<g class="st4">
			<path d="M284.36,233.72c0.58,0.15,1.07,0.48,1.42,0.91c-0.29-0.84-0.97-1.52-1.9-1.76c-1.46-0.38-2.95,0.5-3.33,1.95
				c-0.23,0.88,0,1.77,0.53,2.42c-0.17-0.49-0.2-1.03-0.06-1.56C281.41,234.21,282.9,233.34,284.36,233.72z"/>
		</g>
		<path class="st8" d="M397.1,273.48c-0.38,1.46-1.87,2.33-3.33,1.96c-1.46-0.38-2.33-1.87-1.95-3.33c0.38-1.46,1.87-2.33,3.33-1.95
			C396.61,270.54,397.48,272.03,397.1,273.48z"/>
		<g class="st4">
			<path d="M395.62,271.01c0.58,0.15,1.07,0.48,1.42,0.91c-0.29-0.84-0.97-1.52-1.9-1.76c-1.46-0.38-2.95,0.5-3.33,1.95
				c-0.23,0.88,0,1.77,0.53,2.42c-0.17-0.49-0.2-1.03-0.06-1.56C392.68,271.51,394.17,270.63,395.62,271.01z"/>
		</g>
		<path class="st8" d="M281.64,297.47c-0.38,1.46-1.87,2.33-3.33,1.95c-1.46-0.38-2.33-1.87-1.95-3.33
			c0.38-1.46,1.87-2.33,3.33-1.95C281.15,294.52,282.02,296.01,281.64,297.47z"/>
		<g class="st4">
			<path d="M280.17,295c0.58,0.15,1.07,0.48,1.42,0.91c-0.29-0.84-0.97-1.52-1.9-1.76c-1.46-0.38-2.95,0.5-3.33,1.95
				c-0.23,0.88,0,1.77,0.53,2.42c-0.17-0.49-0.2-1.03-0.06-1.56C277.22,295.49,278.71,294.62,280.17,295z"/>
		</g>
		<path class="st8" d="M301.46,322.22c-0.38,1.46-1.87,2.33-3.33,1.96c-1.46-0.38-2.33-1.87-1.95-3.33
			c0.38-1.46,1.87-2.33,3.33-1.95C300.96,319.27,301.83,320.76,301.46,322.22z"/>
		<g class="st4">
			<path d="M299.98,319.74c0.58,0.15,1.07,0.48,1.42,0.91c-0.29-0.84-0.97-1.52-1.9-1.76c-1.46-0.38-2.95,0.5-3.33,1.95
				c-0.23,0.88,0,1.77,0.53,2.42c-0.17-0.49-0.2-1.03-0.06-1.56C297.03,320.24,298.52,319.37,299.98,319.74z"/>
		</g>
		<path class="st4" d="M375.7,220.99c4.8,12.97,5.83,27.49,2.09,41.89c-9.73,37.47-47.99,59.96-85.46,50.23
			c-10.27-2.67-19.42-7.48-27.08-13.84c7.69,20.77,25.07,37.58,48.14,43.57c37.47,9.73,75.73-12.76,85.46-50.23
			C405.91,265.42,395.99,237.81,375.7,220.99z"/>
	</g>
	<g id="Star_9_">
		<g>
			<circle class="st2" cx="263.67" cy="331.88" r="6.68"/>
		</g>
		<g>
			<path class="st2" d="M413.7,283.86c-0.03,3.69-3.04,6.66-6.72,6.63c3.69,0.03,6.65,3.04,6.63,6.72c0.03-3.69,3.04-6.65,6.72-6.63
				C416.65,290.56,413.68,287.55,413.7,283.86z"/>
		</g>
		<g>
			<circle class="st2" cx="285.78" cy="196.39" r="14.04"/>
		</g>
	</g>
</g>
</svg>
