<?xml version="1.0" encoding="utf-8"?>
<!-- Generator: Adobe Illustrator 23.0.0, SVG Export Plug-In . SVG Version: 6.00 Build 0)  -->
<svg version="1.1" id="Layer_1" xmlns="http://www.w3.org/2000/svg" xmlns:xlink="http://www.w3.org/1999/xlink" x="0px" y="0px"
	 viewBox="0 0 1920 1080" style="enable-background:new 0 0 1920 1080;" xml:space="preserve">
<style type="text/css">
	.st0{fill:url(#SVGID_1_);}
	.st1{fill:url(#SVGID_2_);}
	.st2{fill:#33465A;}
	.st3{fill:#263644;}
	.st4{fill:#20B2B2;}
	.st5{fill:#4D5D7E;}
	.st6{fill:#5F708D;}
	.st7{fill:url(#SVGID_3_);}
	.st8{opacity:0.5;fill:#1C1C1B;}
</style>
<g>
	<g>
		
			<linearGradient id="SVGID_1_" gradientUnits="userSpaceOnUse" x1="1103.9526" y1="730.6589" x2="1103.9526" y2="799.0009" gradientTransform="matrix(-1 0 0 -1 2164.03 1089)">
			<stop  offset="0" style="stop-color:#E84E1B"/>
			<stop  offset="0.4775" style="stop-color:#F29101;stop-opacity:0.7"/>
			<stop  offset="0.7825" style="stop-color:#F9BB2D;stop-opacity:0.4"/>
			<stop  offset="1" style="stop-color:#FBE910;stop-opacity:0"/>
		</linearGradient>
		<rect x="1045.43" y="288.93" class="st0" width="29.3" height="73.33"/>
		
			<linearGradient id="SVGID_2_" gradientUnits="userSpaceOnUse" x1="1189.4396" y1="730.6589" x2="1189.4396" y2="799.0009" gradientTransform="matrix(-1 0 0 -1 2164.03 1089)">
			<stop  offset="0" style="stop-color:#E84E1B"/>
			<stop  offset="0.4775" style="stop-color:#F29101;stop-opacity:0.7"/>
			<stop  offset="0.7825" style="stop-color:#F9BB2D;stop-opacity:0.4"/>
			<stop  offset="1" style="stop-color:#FBE910;stop-opacity:0"/>
		</linearGradient>
		<rect x="959.94" y="288.93" class="st1" width="29.3" height="73.33"/>
		<g>
			<g>
				<polygon class="st2" points="1066.49,710.36 1260.43,565.66 1235.65,485.11 1097.07,412.76 1093.98,388.89 1045.98,397.09 
					1045.98,382.17 1136.56,344.88 1127.27,332.2 1028.95,349.36 1028.95,675.31 				"/>
				<path class="st3" d="M1017.33,867l30.97-23.12l37.49-176.44c19.51-91.82,11.55-187.08-22.95-274.71l-23.83-60.52h-21.68V867z"/>
				<polygon class="st4" points="1235.65,485.11 1200.04,513.45 1105.59,460.49 1097.07,412.76 				"/>
				<path class="st5" d="M1204.69,631.3h19.35v-57.48c0-1.62-1.31-2.94-2.94-2.94h-13.48c-1.62,0-2.94,1.31-2.94,2.94V631.3z"/>
				<path class="st5" d="M1150.49,671.21h19.35v-57.48c0-1.62-1.31-2.94-2.94-2.94h-13.48c-1.62,0-2.94,1.31-2.94,2.94V671.21z"/>
				<path class="st5" d="M1099.24,707.01h13.48c1.62,0,2.94-1.31,2.94-2.94v-54.55c0-1.62-1.31-2.94-2.94-2.94h-13.48
					c-1.62,0-2.94,1.31-2.94,2.94v54.55C1096.3,705.69,1097.61,707.01,1099.24,707.01z"/>
				<polygon class="st4" points="1017.33,663.37 1029.33,674.93 1029.33,846.12 1017.33,846.12 				"/>
				<polygon class="st3" points="1083.14,390.74 1076.45,369.63 1056.91,377.67 1063.39,394.12 				"/>
				<polygon class="st4" points="1260.43,565.66 1094.63,529.32 1094,522.27 1257.79,557.1 				"/>
				
					<rect x="1204.69" y="622.78" transform="matrix(-1 -1.224647e-16 1.224647e-16 -1 2428.7249 1254.0765)" class="st3" width="19.35" height="8.52"/>
				
					<rect x="1150.49" y="662.68" transform="matrix(-1 -1.224647e-16 1.224647e-16 -1 2320.3396 1333.8866)" class="st3" width="19.35" height="8.52"/>
				
					<rect x="1096.3" y="698.48" transform="matrix(-1 -1.224647e-16 1.224647e-16 -1 2211.9546 1405.4915)" class="st3" width="19.35" height="8.52"/>
				<g>
					<path class="st5" d="M1050.24,503.75L1050.24,503.75h-32.9v40.21h48.42C1062.85,530.01,1057.69,516.42,1050.24,503.75z"/>
					<path class="st5" d="M1017.33,646.59h30.97l10.79-26.92c1.18-2.93,2.2-5.9,3.16-8.89h-44.92V646.59z"/>
					<path class="st6" d="M1062.25,610.79c6.99-21.81,8.1-44.78,3.51-66.82h-48.42v66.82H1062.25z"/>
				</g>
				<polygon class="st3" points="1257.79,557.1 1268,547.59 1235.65,485.11 				"/>
			</g>
			<g>
				<polygon class="st2" points="968.17,710.36 774.24,565.66 799.02,485.11 937.59,412.76 940.69,388.89 988.69,397.09 
					988.69,382.17 898.11,344.88 907.4,332.2 1005.72,349.36 1005.72,675.31 				"/>
				<path class="st3" d="M1017.33,867l-30.97-23.12l-37.49-176.44c-19.51-91.82-11.55-187.08,22.95-274.71l23.83-60.52h21.68V867z"
					/>
				<polygon class="st4" points="799.02,485.11 834.63,513.45 929.08,460.49 937.59,412.76 				"/>
				<path class="st5" d="M827.05,631.3h-13.48c-1.62,0-2.94-1.31-2.94-2.94v-54.54c0-1.62,1.31-2.94,2.94-2.94h13.48
					c1.62,0,2.94,1.31,2.94,2.94v54.54C829.98,629.99,828.67,631.3,827.05,631.3z"/>
				<path class="st5" d="M881.24,671.21h-13.48c-1.62,0-2.94-1.31-2.94-2.94v-54.55c0-1.62,1.31-2.94,2.94-2.94h13.48
					c1.62,0,2.94,1.31,2.94,2.94v54.55C884.18,669.89,882.86,671.21,881.24,671.21z"/>
				<path class="st5" d="M935.43,707.01h-13.48c-1.62,0-2.94-1.31-2.94-2.94v-54.55c0-1.62,1.31-2.94,2.94-2.94h13.48
					c1.62,0,2.94,1.31,2.94,2.94v54.55C938.37,705.69,937.05,707.01,935.43,707.01z"/>
				<polygon class="st4" points="1017.33,663.37 1005.33,674.93 1005.33,846.12 1017.33,846.12 				"/>
				<polygon class="st3" points="951.53,390.74 958.22,369.63 977.75,377.67 971.28,394.12 				"/>
				<polygon class="st4" points="774.24,565.66 940.04,529.32 940.67,522.27 776.87,557.1 				"/>
				<rect x="810.63" y="622.78" class="st3" width="19.35" height="8.52"/>
				<rect x="864.82" y="662.68" class="st3" width="19.35" height="8.52"/>
				<rect x="919.01" y="698.48" class="st3" width="19.35" height="8.52"/>
				<path class="st2" d="M1035.73,336.52l3.28-4.32h-21.68h-21.68l3.28,4.32C1008.04,348.53,1026.63,348.53,1035.73,336.52z"/>
				<g>
					<path class="st5" d="M984.43,503.75L984.43,503.75h32.9v40.21h-48.42C971.82,530.01,976.98,516.42,984.43,503.75z"/>
					<path class="st5" d="M1017.33,646.59h-30.97l-10.79-26.92c-1.18-2.93-2.2-5.9-3.16-8.89h44.92V646.59z"/>
					<path class="st6" d="M972.42,610.79c-6.99-21.81-8.1-44.78-3.51-66.82h48.42v66.82H972.42z"/>
				</g>
				<polygon class="st3" points="776.87,557.1 766.67,547.59 799.02,485.11 				"/>
			</g>
		</g>
		
			<linearGradient id="SVGID_3_" gradientUnits="userSpaceOnUse" x1="1146.6962" y1="760.7213" x2="1146.6962" y2="829.0632" gradientTransform="matrix(-1 0 0 -1 2164.03 1089)">
			<stop  offset="0" style="stop-color:#E84E1B"/>
			<stop  offset="0.4775" style="stop-color:#F29101;stop-opacity:0.7"/>
			<stop  offset="0.7825" style="stop-color:#F9BB2D;stop-opacity:0.4"/>
			<stop  offset="1" style="stop-color:#FBE910;stop-opacity:0"/>
		</linearGradient>
		<rect x="995.66" y="258.87" class="st7" width="43.35" height="73.33"/>
	</g>
	<path class="st8" d="M774.21,565.66l36.39,27.15v29.17c0,0.27,0.02,0.54,0.04,0.8h-0.04v8.52h19.35v-8.52h-0.04
		c0.02-0.26,0.04-0.53,0.04-0.8v-14.72l34.84,25.99v28.63c0,0.27,0.02,0.54,0.04,0.8h-0.04v8.52h19.35v-8.52h-0.04
		c0.02-0.26,0.04-0.53,0.04-0.8v-14.19l34.84,25.99v24c0,0.27,0.02,0.54,0.04,0.8h-0.04V707h19.35v-8.52h-0.04
		c0.02-0.26,0.04-0.53,0.04-0.8v-9.56l17.71,13.22l30.28,142.54L1017.3,867V332.2h-21.68h0l0,0l-5.67,14.41l-82.58-14.41
		l-9.29,12.68l60.11,24.75l-6.69,21.11l-10.84-1.85l-3.1,23.87L798.99,485.1l-22.14,72L774.21,565.66z M971.25,394.11l6.47-16.44
		l0,0l-5.93,15.05c-0.18,0.46-0.35,0.93-0.53,1.39l-6.49-1.11L971.25,394.11z"/>
</g>
</svg>
