<?xml version="1.0" encoding="utf-8"?>
<!-- Generator: Adobe Illustrator 23.0.0, SVG Export Plug-In . SVG Version: 6.00 Build 0)  -->
<svg version="1.1" id="BACKGROUND" xmlns="http://www.w3.org/2000/svg" xmlns:xlink="http://www.w3.org/1999/xlink" x="0px" y="0px"
	 viewBox="0 0 500 500" style="enable-background:new 0 0 500 500;" xml:space="preserve">
<style type="text/css">
	.st0{display:none;fill:#2F3854;}
	.st1{display:none;opacity:0.1;}
	.st2{fill:#FFFFFF;}
	.st3{fill:#D8F1FD;}
	.st4{opacity:0.1;}
	.st5{fill:#AEC9D8;}
	.st6{fill:#DD5055;}
	.st7{fill:#CA4953;}
	.st8{fill:#BA3D4E;}
</style>
<rect id="Background_14_" x="128" y="55" class="st0" width="240" height="240"/>
<polygon id="Shadow_12_" class="st1" points="368,205.06 295.43,133.45 202.04,218.18 279.85,295 368,295 "/>
<g id="Moon_2_">
	<g id="Star_12_">
		
			<ellipse transform="matrix(0.3146 -0.9492 0.9492 0.3146 -39.3886 327.2021)" class="st2" cx="206.88" cy="190.88" rx="9.27" ry="14.02"/>
		<circle class="st2" cx="106.12" cy="189.63" r="13.59"/>
		<path class="st2" d="M81.4,71.41c-6.04,0-10.94-4.9-10.94-10.94c0,6.04-4.9,10.94-10.94,10.94c6.04,0,10.94,4.9,10.94,10.94
			C70.46,76.31,75.36,71.41,81.4,71.41z"/>
		<path class="st2" d="M233.65,137.92c-3.23,2-7.48,1.01-9.48-2.22c2,3.23,1.01,7.47-2.22,9.48c3.23-2,7.47-1.01,9.48,2.22
			C229.42,144.16,230.41,139.92,233.65,137.92z"/>
		
			<ellipse transform="matrix(0.178 -0.984 0.984 0.178 97.1696 166.6659)" class="st2" cx="148.35" cy="25.17" rx="26.46" ry="4.79"/>
		<path class="st2" d="M77.35,147.37c-3.8,0-6.88-3.08-6.88-6.88c0,3.8-3.08,6.88-6.88,6.88c3.8,0,6.88,3.08,6.88,6.88
			C70.46,150.45,73.55,147.37,77.35,147.37z"/>
	</g>
	<g id="Moon_1_">
		
			<ellipse transform="matrix(0.2011 -0.9796 0.9796 0.2011 0.4119 234.2543)" class="st3" cx="143.82" cy="116.87" rx="63.06" ry="63.06"/>
		<path class="st4" d="M163.29,56.88c8.67,10.8,13.86,24.51,13.86,39.44c0,34.83-28.23,63.06-63.06,63.06
			c-6.8,0-13.34-1.08-19.47-3.07c11.56,14.4,29.3,23.62,49.21,23.62c34.83,0,63.06-28.23,63.06-63.06
			C206.88,88.84,188.59,65.08,163.29,56.88z"/>
		
			<ellipse transform="matrix(0.9239 -0.3827 0.3827 0.9239 -30.1491 65.014)" class="st5" cx="148.35" cy="108.29" rx="11.97" ry="11.97"/>
		<g class="st4">
			<path d="M151.31,99.42c2.63,0,5.06,0.85,7.04,2.29c-2.14-3.25-5.82-5.39-10-5.39c-6.61,0-11.97,5.36-11.97,11.97
				c0,3.98,1.94,7.51,4.93,9.68c-1.24-1.89-1.97-4.15-1.97-6.58C139.34,104.78,144.7,99.42,151.31,99.42z"/>
		</g>
		<circle class="st5" cx="177.07" cy="88.16" r="8.16"/>
		<g class="st4">
			<path d="M179.09,82.11c1.79,0,3.45,0.58,4.8,1.56c-1.46-2.21-3.97-3.68-6.82-3.68c-4.51,0-8.16,3.66-8.16,8.16
				c0,2.71,1.33,5.12,3.36,6.6c-0.85-1.29-1.34-2.83-1.34-4.49C170.92,85.76,174.58,82.11,179.09,82.11z"/>
		</g>
		<path class="st5" d="M158.29,65.78c0,2.93-2.38,5.31-5.31,5.31c-2.93,0-5.31-2.38-5.31-5.31c0-2.93,2.38-5.31,5.31-5.31
			C155.92,60.48,158.29,62.85,158.29,65.78z"/>
		<g class="st4">
			<path d="M154.3,61.85c1.17,0,2.24,0.38,3.12,1.02c-0.95-1.44-2.58-2.39-4.43-2.39c-2.93,0-5.31,2.38-5.31,5.31
				c0,1.76,0.86,3.33,2.19,4.29c-0.55-0.84-0.87-1.84-0.87-2.92C148.99,64.23,151.37,61.85,154.3,61.85z"/>
		</g>
		
			<ellipse transform="matrix(0.0227 -0.9997 0.9997 0.0227 -22.9501 229.5149)" class="st5" cx="105.92" cy="126.5" rx="8.16" ry="8.16"/>
		<g class="st4">
			<path d="M107.94,120.45c1.79,0,3.45,0.58,4.8,1.56c-1.46-2.21-3.97-3.68-6.82-3.68c-4.51,0-8.16,3.66-8.16,8.16
				c0,2.71,1.33,5.12,3.36,6.6c-0.85-1.29-1.34-2.83-1.34-4.49C99.78,124.1,103.43,120.45,107.94,120.45z"/>
		</g>
		<path class="st5" d="M142.64,146.46c0,4.51-3.65,8.16-8.16,8.16c-4.51,0-8.16-3.66-8.16-8.16c0-4.51,3.66-8.16,8.16-8.16
			C138.99,138.29,142.64,141.95,142.64,146.46z"/>
		<g class="st4">
			<path d="M136.5,140.41c1.79,0,3.45,0.58,4.8,1.56c-1.46-2.21-3.97-3.68-6.82-3.68c-4.51,0-8.16,3.66-8.16,8.16
				c0,2.71,1.33,5.12,3.36,6.6c-0.85-1.29-1.34-2.83-1.34-4.49C128.33,144.07,131.99,140.41,136.5,140.41z"/>
		</g>
		<path class="st5" d="M181.21,151.89c0,4.51-3.66,8.16-8.16,8.16c-4.51,0-8.16-3.66-8.16-8.16c0-4.51,3.66-8.16,8.16-8.16
			C177.56,143.72,181.21,147.38,181.21,151.89z"/>
		<g class="st4">
			<path d="M175.07,145.84c1.79,0,3.45,0.58,4.8,1.56c-1.46-2.21-3.97-3.68-6.82-3.68c-4.51,0-8.16,3.66-8.16,8.16
				c0,2.71,1.33,5.12,3.36,6.6c-0.85-1.29-1.34-2.83-1.34-4.49C166.91,149.5,170.56,145.84,175.07,145.84z"/>
		</g>
		<path class="st5" d="M193.52,117.75c0,2.58-2.09,4.67-4.67,4.67c-2.58,0-4.67-2.09-4.67-4.67c0-2.58,2.09-4.67,4.67-4.67
			C191.43,113.08,193.52,115.17,193.52,117.75z"/>
		<g class="st4">
			<path d="M190,114.29c1.03,0,1.98,0.33,2.75,0.89c-0.84-1.27-2.27-2.1-3.9-2.1c-2.58,0-4.67,2.09-4.67,4.67
				c0,1.55,0.76,2.93,1.92,3.78c-0.49-0.74-0.77-1.62-0.77-2.57C185.33,116.38,187.42,114.29,190,114.29z"/>
		</g>
		<path class="st5" d="M123.43,79.99c0,2.58-2.09,4.67-4.67,4.67c-2.58,0-4.67-2.09-4.67-4.67c0-2.58,2.09-4.67,4.67-4.67
			C121.34,75.32,123.43,77.41,123.43,79.99z"/>
		<g class="st4">
			<path d="M119.91,76.53c1.03,0,1.98,0.33,2.75,0.89c-0.84-1.27-2.27-2.1-3.9-2.1c-2.58,0-4.67,2.09-4.67,4.67
				c0,1.55,0.76,2.93,1.93,3.78c-0.49-0.74-0.77-1.62-0.77-2.57C115.24,78.62,117.33,76.53,119.91,76.53z"/>
		</g>
		<path class="st5" d="M95.71,93.29c0,1.36-1.1,2.45-2.45,2.45c-1.35,0-2.45-1.1-2.45-2.45c0-1.36,1.1-2.45,2.45-2.45
			C94.62,90.84,95.71,91.94,95.71,93.29z"/>
		<g class="st4">
			<path d="M93.87,91.47c0.54,0,1.04,0.17,1.44,0.47c-0.44-0.67-1.19-1.11-2.05-1.11c-1.35,0-2.45,1.1-2.45,2.45
				c0,0.82,0.4,1.54,1.01,1.98c-0.26-0.39-0.4-0.85-0.4-1.35C91.41,92.57,92.51,91.47,93.87,91.47z"/>
		</g>
		<circle class="st5" cx="201.04" cy="132.21" r="2.45"/>
		<g class="st4">
			<path d="M201.64,130.39c0.54,0,1.04,0.17,1.44,0.47c-0.44-0.67-1.19-1.11-2.05-1.11c-1.36,0-2.45,1.1-2.45,2.45
				c0,0.82,0.4,1.54,1.01,1.98c-0.26-0.39-0.4-0.85-0.4-1.35C199.19,131.49,200.29,130.39,201.64,130.39z"/>
		</g>
		<path class="st5" d="M201.04,100.61c0,1.36-1.1,2.45-2.45,2.45c-1.36,0-2.45-1.1-2.45-2.45c0-1.35,1.1-2.45,2.45-2.45
			C199.94,98.15,201.04,99.25,201.04,100.61z"/>
		<g class="st4">
			<path d="M199.19,98.79c0.54,0,1.04,0.17,1.44,0.47c-0.44-0.67-1.19-1.11-2.05-1.11c-1.36,0-2.45,1.1-2.45,2.45
				c0,0.82,0.4,1.54,1.01,1.98c-0.25-0.39-0.4-0.85-0.4-1.35C196.74,99.89,197.83,98.79,199.19,98.79z"/>
		</g>
		<path class="st5" d="M105.92,147.6c0,1.36-1.1,2.45-2.45,2.45c-1.35,0-2.45-1.1-2.45-2.45c0-1.36,1.1-2.45,2.45-2.45
			C104.82,145.15,105.92,146.25,105.92,147.6z"/>
		<g class="st4">
			<path d="M104.07,145.79c0.54,0,1.04,0.17,1.44,0.47c-0.44-0.67-1.19-1.11-2.05-1.11c-1.35,0-2.45,1.1-2.45,2.45
				c0,0.82,0.4,1.54,1.01,1.98c-0.26-0.39-0.4-0.85-0.4-1.35C101.62,146.88,102.72,145.79,104.07,145.79z"/>
		</g>
		<path class="st5" d="M128.77,164.67c0,1.36-1.1,2.45-2.45,2.45c-1.36,0-2.45-1.1-2.45-2.45s1.1-2.45,2.45-2.45
			C127.67,162.22,128.77,163.32,128.77,164.67z"/>
		<g class="st4">
			<path d="M126.92,162.85c0.54,0,1.04,0.17,1.44,0.47c-0.44-0.67-1.19-1.11-2.05-1.11c-1.36,0-2.45,1.1-2.45,2.45
				c0,0.82,0.4,1.54,1.01,1.98c-0.26-0.39-0.4-0.85-0.4-1.35C124.47,163.95,125.57,162.85,126.92,162.85z"/>
		</g>
	</g>
</g>
</svg>
